<?xml version="1.0" standalone="no"?>
<!DOCTYPE svg PUBLIC "-//W3C//DTD SVG 20010904//EN"
 "http://www.w3.org/TR/2001/REC-SVG-20010904/DTD/svg10.dtd">
<svg version="1.0" xmlns="http://www.w3.org/2000/svg"
 width="512.000000pt" height="512.000000pt" viewBox="0 0 512.000000 512.000000"
 preserveAspectRatio="xMidYMid meet">
<metadata>
Created by potrace 1.14, written by Peter Selinger 2001-2017
</metadata>
<g transform="translate(0.000000,512.000000) scale(0.100000,-0.100000)"
fill="#000000" stroke="none">
<path d="M2325 4960 c-231 -24 -498 -94 -723 -191 -655 -281 -1169 -869 -1360
-1554 -67 -240 -86 -387 -86 -655 0 -303 31 -501 121 -768 210 -624 692 -1156
1291 -1427 893 -404 1939 -226 2651 451 965 917 1003 2438 85 3403 -331 348
-778 600 -1236 696 -215 46 -542 65 -743 45z m580 -39 c987 -145 1787 -896
1988 -1866 40 -191 51 -297 50 -500 0 -491 -137 -932 -414 -1340 -559 -824
-1584 -1214 -2549 -970 -681 172 -1257 639 -1565 1269 -392 803 -301 1763 236
2476 412 547 1018 884 1709 950 133 12 391 3 545 -19z"/>
<path d="M2395 4794 c-317 -33 -539 -93 -790 -213 -305 -147 -532 -320 -743
-566 -277 -323 -452 -707 -518 -1135 -25 -159 -25 -481 0 -640 85 -551 359
-1043 776 -1392 810 -679 1974 -702 2812 -56 108 84 277 250 366 360 259 320
424 708 483 1133 17 118 17 434 0 555 -93 687 -484 1285 -1071 1638 -254 153
-527 252 -820 297 -102 15 -414 27 -495 19z m485 -39 c635 -96 1171 -440 1539
-987 288 -430 413 -998 335 -1528 -124 -855 -750 -1573 -1577 -1810 -703 -201
-1443 -51 -2012 407 -124 100 -277 258 -371 383 -232 308 -371 642 -431 1030
-24 157 -24 463 0 620 75 487 283 905 622 1246 190 192 377 326 610 439 248
121 485 186 800 219 80 8 382 -4 485 -19z"/>
<path d="M2337 4729 c-400 -39 -835 -220 -1154 -481 -559 -457 -861 -1175
-792 -1884 25 -264 94 -505 213 -749 119 -242 239 -411 425 -595 349 -345 795
-559 1285 -616 166 -19 434 -14 586 11 1033 172 1794 1028 1837 2065 29 707
-299 1393 -874 1826 -427 322 -982 475 -1526 423z m206 -56 c17 -46 16 -66 -3
-47 -5 5 -16 27 -24 49 l-14 40 -21 -47 c-11 -27 -25 -48 -32 -48 -6 0 -9 6
-6 13 2 6 10 29 18 50 10 30 18 37 39 37 21 0 29 -8 43 -47z m149 -3 c12 -38
13 -50 4 -50 -7 0 -19 21 -28 48 l-15 47 -23 -47 c-13 -27 -28 -48 -32 -48
-13 0 -9 18 12 60 15 29 27 40 43 40 19 0 26 -9 39 -50z m-294 -5 c18 -36 19
-45 7 -45 -8 0 -24 19 -37 43 l-22 42 -15 -47 c-8 -27 -20 -48 -27 -48 -10 0
-10 8 1 41 20 55 23 59 49 59 16 0 28 -12 44 -45z m402 39 c0 -17 -45 -84 -57
-84 -14 0 -8 17 25 68 13 20 32 30 32 16z m39 -41 c6 -21 11 -45 11 -53 0 -12
-2 -12 -14 0 -19 19 -32 90 -18 90 6 0 16 -17 21 -37z m-591 -14 c13 -22 21
-43 18 -46 -9 -9 -33 15 -46 47 -17 40 -27 38 -35 -9 -4 -22 -14 -46 -22 -53
-14 -11 -15 -9 -8 22 14 64 23 80 47 80 16 0 30 -12 46 -41z m696 18 c-24 -41
-47 -67 -60 -67 -11 0 -6 13 17 45 17 24 36 42 41 39 4 -3 5 -11 2 -17z m36 6
c1 -5 5 -27 9 -50 6 -32 5 -43 -4 -43 -11 0 -25 49 -25 88 0 13 20 17 20 5z
m-881 -47 c23 -37 25 -46 11 -46 -5 0 -20 16 -34 36 -26 39 -27 38 -41 -33
-11 -53 -28 -40 -20 15 11 72 49 85 84 28z m1033 -31 c7 -53 6 -61 -11 -50 -6
3 -11 24 -11 45 0 51 -10 55 -40 14 -14 -18 -31 -34 -37 -34 -18 0 -16 7 14
46 20 27 32 34 52 32 23 -3 27 -9 33 -53z m-1176 -10 c37 -49 20 -59 -20 -11
l-33 38 -7 -51 c-9 -65 -31 -70 -23 -5 8 73 41 84 83 29z m1314 -1 c15 -39 13
-84 -5 -84 -11 0 -15 13 -15 53 l-1 52 -33 -37 c-30 -35 -56 -49 -56 -31 0 15
65 73 82 73 11 0 23 -11 28 -26z m-448 1 c775 -102 1427 -639 1673 -1377 198
-595 116 -1240 -223 -1758 -96 -147 -173 -240 -305 -366 -382 -367 -870 -563
-1404 -564 -451 0 -872 139 -1232 408 -42 31 -127 106 -190 167 -406 394 -621
903 -621 1470 0 377 101 737 297 1059 150 247 364 469 614 637 247 165 556
283 855 323 136 19 398 19 536 1z m-1010 -42 c28 -26 37 -53 19 -53 -5 0 -23
17 -40 37 l-31 38 0 -52 c0 -36 -4 -53 -15 -57 -24 -9 -21 89 3 103 26 15 33
14 64 -16z m1589 5 c12 -10 15 -26 11 -60 -5 -59 -22 -53 -22 8 l0 45 -40 -32
c-51 -41 -64 -30 -20 16 37 38 48 42 71 23z m-1723 -71 c45 -47 27 -56 -20
-10 l-38 37 0 -57 c0 -31 -4 -57 -10 -57 -15 0 -13 107 3 113 24 10 34 7 65
-26z m1853 13 c28 -15 25 -110 -3 -110 -6 0 -7 19 -3 50 4 28 4 50 1 50 -3 0
-21 -14 -40 -31 -20 -17 -40 -28 -46 -24 -7 4 4 20 27 41 44 39 39 37 64 24z
m-1983 -80 c17 -16 32 -32 32 -35 0 -13 -25 -3 -54 22 l-31 26 -3 -51 c-4 -65
-18 -67 -25 -4 -4 36 -2 50 11 60 23 18 33 15 70 -18z m2131 -48 c-5 -20 -9
-40 -9 -44 0 -5 -5 -8 -11 -8 -7 0 -9 16 -4 51 l7 51 -40 -27 c-56 -37 -76
-26 -22 12 40 28 47 29 66 16 19 -12 21 -19 13 -51z m-2262 -28 c18 -14 31
-30 27 -35 -3 -6 -20 1 -39 15 -19 15 -37 26 -40 26 -4 0 -4 -22 0 -50 4 -31
3 -50 -3 -50 -21 0 -30 88 -10 108 17 17 27 15 65 -14z m2382 -3 c11 -7 11
-17 1 -61 -8 -33 -16 -48 -22 -42 -6 6 -6 24 1 48 16 56 15 57 -29 29 -42 -26
-60 -31 -60 -16 0 12 60 49 80 50 8 0 21 -3 29 -8z m-2503 -82 c30 -18 45 -39
28 -39 -13 0 -84 44 -84 52 0 14 21 9 56 -13z m-51 -39 c9 -50 8 -54 -3 -58
-10 -3 -33 88 -25 100 9 16 21 -3 28 -42z m2680 -7 c-11 -46 -25 -74 -34 -68
-6 3 -4 22 5 47 8 23 12 43 10 45 -2 3 -22 -5 -44 -16 -27 -14 -43 -17 -47
-10 -8 13 -9 12 40 37 37 19 41 19 58 4 12 -10 16 -24 12 -39z m-2705 -75 c0
-13 -18 -9 -61 12 l-40 21 7 -28 c4 -15 11 -38 15 -50 5 -12 4 -25 -1 -28 -10
-6 -14 -1 -30 48 -10 33 -10 41 5 57 17 18 18 18 61 -3 24 -11 44 -25 44 -29z
m2813 14 c15 -16 14 -21 -7 -67 -13 -29 -25 -45 -29 -38 -4 6 0 28 10 47 9 20
14 38 11 41 -3 4 -23 -1 -44 -10 -55 -23 -67 -2 -13 23 55 26 53 25 72 4z
m-2958 -89 c31 -15 47 -33 28 -33 -18 0 -93 34 -93 41 0 14 26 11 65 -8z m-50
-39 c17 -41 19 -64 6 -64 -7 0 -41 75 -41 93 0 20 22 2 35 -29z m3103 24 c-6
-18 -88 -42 -100 -30 -6 6 5 15 34 25 53 19 71 20 66 5z m22 -18 c0 -6 -9 -29
-20 -51 -28 -55 -45 -39 -18 16 21 42 38 58 38 35z m-3165 -80 c14 -5 25 -14
25 -20 0 -14 -11 -13 -55 6 -20 8 -39 13 -42 11 -2 -3 5 -24 17 -46 11 -23 18
-47 14 -53 -4 -6 -17 8 -31 35 -20 40 -21 50 -11 67 13 21 27 21 83 0z m3249
-75 c-21 -40 -32 -50 -41 -41 -4 3 4 24 16 46 24 44 20 47 -39 30 -21 -6 -38
-6 -43 -1 -6 6 9 15 39 24 46 14 50 14 68 -4 19 -18 19 -19 0 -54z m-3353 -37
c22 -6 39 -15 39 -20 0 -11 -17 -10 -59 2 -19 5 -37 8 -39 5 -2 -2 5 -20 17
-40 23 -40 26 -55 11 -55 -6 0 -20 20 -32 44 -18 37 -19 47 -8 60 15 19 21 19
71 4z m3452 -40 c8 -12 5 -24 -17 -52 -31 -41 -56 -39 -28 2 39 56 39 55 -12
48 -52 -8 -87 4 -46 15 40 12 92 5 103 -13z m-3528 -84 c24 -4 33 -10 27 -16
-7 -7 -26 -7 -56 0 -25 5 -46 8 -46 5 0 -2 11 -21 25 -41 14 -20 25 -40 25
-44 0 -19 -19 -5 -43 31 -24 36 -24 40 -10 60 8 12 21 20 28 17 8 -3 30 -8 50
-12z m3603 -26 c19 -19 14 -38 -18 -74 -39 -45 -49 -24 -11 24 l30 39 -55 -5
c-34 -3 -54 -1 -54 6 0 9 18 14 81 20 8 1 20 -3 27 -10z m-3660 -104 c7 -2 11
-8 7 -14 -3 -5 -25 -7 -52 -3 -43 6 -45 5 -35 -14 6 -11 18 -25 26 -33 16 -13
22 -40 9 -40 -5 0 -21 16 -37 36 -24 30 -27 40 -18 59 10 21 16 23 49 19 21
-3 44 -8 51 -10z m3736 -36 c15 -21 14 -24 -21 -60 -21 -22 -39 -34 -42 -27
-2 6 12 26 30 45 l33 34 -51 0 c-54 0 -80 15 -41 23 54 10 77 7 92 -15z
m-3796 -107 c4 -11 -5 -13 -47 -8 l-52 6 21 -29 c12 -16 25 -32 30 -35 6 -4
10 -14 10 -23 0 -12 -10 -7 -36 20 -30 30 -35 41 -30 63 6 24 10 26 53 23 29
-2 48 -8 51 -17z m3863 -32 c9 -18 6 -26 -22 -55 -36 -37 -49 -42 -49 -20 0 8
14 24 30 36 42 30 37 40 -20 40 -27 0 -50 5 -50 10 0 6 22 10 50 10 40 0 51
-4 61 -21z m-3916 -99 c-3 -5 -28 -10 -56 -10 -27 0 -49 5 -49 10 0 6 25 10
56 10 34 0 53 -4 49 -10z m3931 -20 c24 0 33 -5 38 -22 5 -18 -2 -30 -31 -56
-24 -21 -39 -29 -42 -21 -2 7 10 24 28 38 17 14 31 29 31 33 0 4 -21 8 -47 10
-29 2 -48 8 -51 17 -4 10 1 12 19 8 13 -4 38 -7 55 -7z m-3999 -32 c18 -18 33
-39 33 -47 0 -9 -15 0 -40 24 -38 37 -49 55 -33 55 4 0 22 -14 40 -32z m19
-87 c-3 -5 -27 -12 -53 -16 l-47 -7 39 -32 c21 -18 36 -38 34 -44 -7 -20 -79
46 -79 72 0 12 3 26 7 29 10 10 105 8 99 -2z m4052 -34 c20 -16 14 -44 -15
-65 -47 -32 -53 -34 -53 -18 0 8 17 25 38 38 l37 23 -49 10 c-64 14 -77 38
-14 29 23 -4 49 -11 56 -17z m-4088 -106 c0 -5 -10 -11 -22 -15 -35 -9 -78 -7
-78 3 0 9 28 16 78 20 12 0 22 -3 22 -8z m4128 -63 c2 -20 -4 -30 -33 -48 -25
-16 -40 -19 -47 -12 -7 7 2 17 31 32 49 24 47 35 -9 44 -24 4 -40 12 -40 20 0
12 8 12 48 2 39 -10 47 -16 50 -38z m-4187 5 c21 -16 39 -34 39 -41 0 -16 -3
-15 -52 18 -21 14 -38 31 -38 38 0 17 7 15 51 -15z m29 -87 c0 -9 -17 -16 -45
-20 -25 -4 -45 -10 -45 -14 0 -4 18 -17 40 -30 22 -12 40 -27 40 -32 0 -14 -8
-13 -51 12 -30 17 -39 28 -39 48 0 24 6 29 43 37 58 15 57 15 57 -1z m4152
-32 c28 -7 44 -47 24 -63 -22 -17 -78 -42 -83 -37 -9 9 16 33 48 46 34 15 30
23 -23 40 -40 12 -54 37 -15 26 12 -4 34 -9 49 -12z m-4174 -116 c-3 -7 -21
-17 -41 -21 -20 -5 -37 -12 -37 -15 0 -4 18 -17 40 -30 22 -12 40 -27 40 -32
0 -15 -11 -12 -55 13 -53 30 -55 65 -5 83 46 16 63 17 58 2z m4220 -70 c3 -21
-3 -28 -38 -42 -46 -18 -60 -20 -60 -7 0 5 20 17 45 27 50 19 49 26 -7 44 -21
6 -38 18 -38 26 0 11 9 10 48 -5 36 -14 48 -24 50 -43z m-4218 -69 c0 -5 -21
-20 -47 -31 l-48 -21 48 -20 c26 -11 47 -23 47 -28 0 -12 -8 -11 -57 7 -36 14
-43 21 -43 43 0 22 7 29 43 43 53 20 57 20 57 7z m4180 -39 c30 -15 40 -27 40
-44 0 -20 -9 -27 -47 -40 -25 -9 -48 -14 -51 -12 -7 7 8 26 21 26 7 1 26 7 42
14 l30 13 -47 21 c-27 11 -48 26 -48 31 0 16 16 13 60 -9z m-4180 -110 c0 -5
-19 -19 -42 -31 l-43 -22 30 -13 c17 -7 35 -13 42 -14 13 0 28 -19 21 -26 -3
-2 -26 3 -51 12 -41 14 -47 20 -47 44 0 22 7 30 38 43 46 19 52 20 52 7z
m4208 -85 c2 -14 2 -25 0 -25 -2 0 -24 -7 -50 -15 -40 -11 -48 -12 -48 -1 0 8
20 19 45 25 25 6 45 13 45 16 0 2 -18 14 -40 25 -22 11 -40 27 -40 36 0 27 84
-31 88 -61z m-4198 -60 c0 -12 -66 -55 -85 -55 -23 0 37 51 83 69 1 1 2 -6 2
-14z m4143 -40 c41 -28 51 -70 20 -79 -53 -14 -83 -17 -83 -6 0 11 2 12 59 27
l34 8 -41 28 c-23 15 -42 32 -42 37 0 16 12 12 53 -15z m-4167 -36 c26 -7 44
-17 44 -26 0 -8 -3 -12 -7 -10 -5 3 -27 10 -50 16 -24 7 -43 16 -43 21 0 12 2
12 56 -1z m54 -69 c0 -5 -19 -22 -42 -37 l-43 -27 45 -9 c44 -8 69 -22 59 -31
-8 -8 -93 15 -101 27 -14 23 -8 36 29 62 41 27 53 31 53 15z m4098 -54 c44
-39 18 -76 -54 -76 -50 0 -33 18 26 28 l43 7 -36 28 c-21 15 -37 35 -37 44 0
17 8 12 58 -31z m-4068 -90 c0 -8 -16 -24 -36 -36 -41 -26 -38 -32 18 -39 23
-3 43 -12 45 -18 4 -10 -7 -11 -44 -6 -75 10 -85 44 -26 86 44 31 43 31 43 13z
m4019 -45 c28 -23 33 -32 27 -54 -6 -25 -11 -27 -56 -27 -28 0 -50 5 -50 10 0
6 18 10 39 10 52 0 57 11 21 45 -51 49 -36 62 19 16z m-4005 -132 l-38 -39 52
0 c35 0 52 -4 52 -12 0 -9 -15 -12 -51 -9 -40 2 -52 7 -59 25 -7 17 -2 27 28
53 50 44 63 30 16 -18z m3982 -63 c-6 -24 -11 -26 -57 -26 -36 0 -49 4 -46 13
2 8 20 11 53 9 l49 -4 -32 34 c-18 19 -33 43 -33 53 0 16 6 13 36 -17 30 -29
35 -41 30 -62z m-3896 -34 c0 -5 -13 -21 -30 -37 -16 -16 -30 -33 -30 -37 0
-5 21 -8 46 -6 31 2 48 -1 51 -9 3 -9 -10 -13 -46 -13 -41 0 -52 4 -62 21 -9
18 -6 26 22 55 32 33 49 42 49 26z m3813 -48 c22 -26 27 -42 22 -61 -5 -23 -9
-25 -43 -19 -20 3 -46 6 -56 6 -15 0 -17 3 -9 11 6 6 31 10 56 8 l45 -4 -20
27 c-10 15 -23 30 -28 33 -12 7 -13 35 -2 35 4 0 20 -16 35 -36z m-3749 -83
c3 -4 -4 -17 -15 -27 -12 -10 -25 -27 -31 -37 -9 -17 -6 -19 38 -15 32 2 49
-1 52 -10 3 -10 -9 -12 -48 -10 -72 4 -84 24 -44 71 31 37 39 43 48 28z m3681
-50 c46 -67 15 -97 -75 -72 -41 11 -5 24 47 16 l46 -7 -31 43 c-17 23 -29 46
-26 51 8 12 9 11 39 -31z m-3635 -121 l-33 -42 56 7 c61 8 82 -8 26 -19 -56
-11 -77 -7 -84 15 -8 25 43 105 58 90 6 -6 -2 -24 -23 -51z m3559 -6 c23 -38
25 -52 12 -73 -7 -11 -17 -11 -61 -1 -31 8 -48 16 -42 22 5 5 26 5 53 -1 24
-5 45 -9 46 -7 1 1 -9 19 -22 39 -14 20 -25 41 -25 46 0 22 19 10 39 -25z
m-3455 -87 c-4 -7 -16 -24 -26 -39 -24 -35 -23 -38 14 -27 18 5 43 9 55 9 40
0 25 -16 -24 -28 -42 -9 -50 -8 -66 7 -18 18 -18 20 7 60 15 23 31 39 37 36 5
-4 6 -12 3 -18z m3373 -40 c18 -37 19 -46 7 -61 -12 -17 -18 -18 -59 -6 -25 7
-45 17 -45 23 0 9 24 6 78 -9 l24 -7 -21 41 c-22 44 -26 62 -13 62 4 0 17 -19
29 -43z m-3297 -102 c-12 -20 -20 -38 -17 -41 3 -3 24 0 46 7 42 12 67 5 41
-11 -32 -20 -79 -23 -97 -5 -16 16 -15 20 7 62 15 28 27 40 33 34 6 -6 2 -22
-13 -46z m3200 -5 c24 -46 24 -49 5 -74 -14 -18 -15 -18 -59 0 -45 19 -60 34
-32 34 7 0 30 -7 50 -15 20 -8 36 -13 36 -11 0 2 -9 25 -19 49 -17 39 -18 57
-5 57 2 0 13 -18 24 -40z m-3100 -105 c-21 -50 -19 -52 35 -29 26 10 41 12 48
5 7 -7 4 -12 -9 -17 -10 -4 -33 -13 -51 -20 -28 -11 -33 -10 -49 7 -17 19 -17
22 4 65 29 58 47 48 22 -11z m3002 -12 c17 -46 17 -49 -1 -66 -18 -18 -20 -18
-66 6 -59 30 -44 44 18 18 l46 -20 -15 41 c-16 45 -18 68 -6 68 4 0 15 -21 24
-47z m-2896 -93 c-9 -22 -16 -43 -16 -45 0 -3 18 4 41 15 23 12 48 18 57 15
13 -6 5 -13 -33 -31 -48 -22 -51 -23 -68 -6 -16 17 -16 21 -1 66 11 32 20 44
27 37 6 -6 4 -23 -7 -51z m2788 -13 c9 -29 10 -49 4 -53 -12 -8 -12 -7 -27 44
-6 23 -9 47 -5 53 9 14 12 9 28 -44z m-48 -38 c31 -19 45 -39 27 -39 -9 0 -93
50 -93 55 0 12 36 3 66 -16z m-2620 -16 c-3 -16 -9 -39 -12 -51 l-7 -24 41 21
c74 38 89 20 17 -19 -42 -23 -46 -23 -61 -8 -15 15 -15 22 -4 62 13 49 37 65
26 19z m2543 -97 c-18 -19 -19 -19 -59 8 -22 15 -38 31 -35 37 4 5 17 2 33 -9
56 -39 55 -39 48 12 -10 66 6 83 20 21 10 -44 9 -52 -7 -69z m-2427 -18 c-6
-23 -10 -44 -8 -45 1 -1 19 9 39 22 20 14 41 25 46 25 22 0 10 -18 -29 -44
-34 -22 -43 -24 -60 -14 -23 15 -23 15 -9 74 8 30 15 42 22 35 6 -6 6 -24 -1
-53z m2313 -4 c11 -76 -24 -95 -83 -45 -48 41 -22 50 28 11 l40 -32 -6 56 c-8
68 10 78 21 10z m-2186 -71 c-4 -27 -6 -49 -5 -50 1 -2 18 11 37 27 33 28 59
38 59 23 0 -12 -67 -63 -82 -63 -31 1 -40 17 -33 64 4 26 13 46 20 46 9 0 10
-13 4 -47z m2061 -13 c0 -39 -4 -51 -20 -60 -17 -9 -27 -6 -55 17 -31 26 -45
53 -27 53 5 0 21 -13 37 -30 16 -16 33 -30 37 -30 5 0 6 23 2 50 -6 42 -4 50
10 50 13 0 16 -10 16 -50z m-1928 -58 l3 -43 37 31 c47 39 58 23 13 -20 -31
-30 -37 -32 -61 -21 -17 8 -24 17 -20 27 3 9 6 32 6 52 0 50 18 29 22 -26z
m1790 -11 c-5 -67 -30 -77 -78 -30 -18 18 -31 36 -27 41 3 6 23 -7 44 -28 l39
-38 0 50 c0 49 6 68 19 60 3 -2 4 -27 3 -55z m-1654 -46 l3 -48 34 33 c18 18
38 31 44 29 7 -3 -5 -21 -26 -41 -31 -29 -42 -34 -60 -27 -20 7 -23 16 -23 60
0 67 24 62 28 -6z m1522 1 c0 -44 -18 -76 -43 -76 -7 0 -27 18 -45 40 -42 51
-17 55 27 5 l31 -36 0 33 c0 42 10 78 21 78 5 0 9 -20 9 -44z m-1380 -52 l5
-49 30 37 c27 34 55 50 55 31 -1 -20 -62 -73 -84 -73 -24 0 -36 28 -36 87 0
45 25 18 30 -33z m1239 19 c-2 -48 -14 -76 -36 -84 -17 -6 -26 0 -52 37 -24
33 -28 44 -17 44 9 0 26 -16 38 -35 28 -42 38 -44 38 -7 0 37 10 72 21 72 5 0
9 -12 8 -27z m-1101 -34 c1 -13 5 -35 8 -48 5 -22 6 -22 35 18 17 22 35 39 40
35 10 -6 1 -24 -29 -63 -27 -34 -72 -23 -72 17 0 15 -3 38 -7 51 -4 18 -2 23
8 19 8 -2 15 -15 17 -29z m962 9 c0 -38 -23 -87 -42 -94 -23 -7 -36 5 -64 59
-24 45 7 33 37 -14 l27 -42 7 34 c11 56 16 69 26 69 5 0 9 -6 9 -12z m-814
-59 c4 -21 10 -39 14 -39 5 0 18 16 30 35 12 19 28 35 36 35 10 0 6 -13 -14
-45 -23 -40 -30 -45 -52 -40 -32 8 -29 4 -37 60 -8 60 14 55 23 -6z m674 39
c0 -2 -6 -23 -14 -48 -11 -37 -18 -46 -39 -48 -22 -3 -29 4 -46 37 -24 46 -25
51 -11 51 5 0 19 -19 31 -42 l22 -43 13 30 c7 17 13 38 14 48 0 9 7 17 15 17
8 0 15 -1 15 -2z m-527 -49 c13 -51 21 -53 46 -9 12 22 26 40 32 40 13 0 12
-6 -11 -50 -17 -33 -26 -40 -49 -40 -23 0 -30 5 -35 28 -3 15 -9 38 -12 51 -5
17 -3 22 7 19 7 -2 17 -20 22 -39z m148 -6 c18 -59 21 -59 46 -10 13 26 28 47
33 47 14 0 13 -3 -12 -55 -29 -59 -61 -62 -83 -9 -17 41 -19 64 -6 64 5 0 15
-17 22 -37z m151 -4 c19 -39 22 -59 8 -59 -7 0 -50 82 -50 97 0 16 28 -9 42
-38z m78 32 c0 -19 -31 -81 -41 -81 -10 0 -7 16 12 68 8 21 29 31 29 13z"/>
<path d="M2320 4545 c-651 -81 -1217 -471 -1528 -1055 -99 -184 -169 -396
-209 -625 -23 -139 -23 -471 0 -610 77 -444 259 -799 566 -1106 339 -338 744
-530 1220 -578 589 -61 1176 151 1602 578 310 311 489 662 566 1106 23 139 23
471 0 610 -50 292 -157 566 -309 795 -422 633 -1164 977 -1908 885z m430 -15
c864 -90 1569 -723 1746 -1568 120 -579 -28 -1187 -403 -1652 -71 -88 -233
-246 -318 -311 -409 -313 -911 -459 -1406 -409 -204 21 -433 81 -601 157 -72
33 -76 36 -65 57 7 11 13 22 14 24 1 2 13 -4 27 -13 24 -16 28 -16 51 -1 44
29 29 96 -22 96 -13 0 -23 6 -23 13 -1 6 -16 -21 -35 -60 -18 -40 -36 -73 -39
-73 -13 0 -195 111 -278 170 -109 77 -284 242 -370 349 -487 603 -583 1414
-248 2110 108 222 236 398 418 572 415 397 990 597 1552 539z m-950 -3645 c20
-24 -3 -65 -35 -65 -31 0 -42 23 -27 56 13 27 43 32 62 9z"/>
<path d="M2403 4446 l-30 -48 -9 44 -8 43 -3 -35 c-2 -20 0 -47 5 -60 9 -24
10 -24 38 23 l29 47 12 -42 11 -43 0 40 c0 22 -3 49 -7 60 -7 17 -12 14 -38
-29z"/>
<path d="M2523 4483 c25 -4 27 -8 29 -56 l1 -52 6 50 c5 42 10 50 31 56 16 5
4 7 -35 7 -33 -1 -48 -3 -32 -5z"/>
<path d="M2670 4459 c-6 -11 -10 -30 -8 -42 4 -28 51 -52 75 -38 15 9 13 10
-14 11 -23 0 -36 6 -44 21 -11 21 -10 22 35 17 38 -5 46 -3 46 11 0 42 -70 58
-90 20z m70 -4 c0 -10 -10 -15 -30 -15 -29 0 -38 9 -23 23 13 13 53 7 53 -8z"/>
<path d="M2227 4460 c-20 -4 -41 -10 -45 -15 -4 -4 5 -6 20 -3 28 5 38 -10 38
-59 0 -13 4 -23 10 -23 6 0 7 18 4 43 -6 38 -4 44 17 54 27 13 12 14 -44 3z"/>
<path d="M2836 4463 c-3 -4 -6 -19 -6 -34 0 -15 -7 -35 -16 -43 -14 -14 -14
-16 0 -16 9 0 19 15 26 40 9 34 15 40 37 40 25 0 26 -1 20 -50 -3 -27 -2 -50
2 -50 7 0 24 101 18 105 -8 6 -76 12 -81 8z"/>
<path d="M2981 4401 c-17 -59 -10 -73 36 -69 31 2 39 7 41 26 3 18 -3 26 -27
35 -17 6 -32 20 -34 32 -2 14 -7 7 -16 -24z m54 -24 c23 -17 12 -37 -21 -37
-19 0 -24 5 -24 25 0 28 17 32 45 12z"/>
<path d="M2062 4418 c-36 -36 6 -104 56 -91 32 8 27 18 -9 18 -59 0 -66 60 -8
76 l24 7 -25 1 c-15 1 -31 -4 -38 -11z"/>
<path d="M3133 4383 c-3 -10 -12 -33 -19 -50 -7 -18 -9 -33 -4 -33 5 0 12 9
15 20 7 22 9 23 43 13 20 -5 23 -10 18 -34 -9 -48 9 -33 26 21 16 51 14 62 -6
34 -8 -11 -20 -13 -39 -9 -22 6 -26 11 -21 31 7 28 -4 33 -13 7z"/>
<path d="M1914 4375 c-18 -14 -17 -15 8 -5 38 13 46 -6 14 -31 -37 -29 -35
-59 3 -59 17 0 33 5 36 10 4 6 11 7 17 4 14 -9 2 43 -18 74 -17 26 -33 28 -60
7z m64 -51 c-5 -26 -35 -41 -50 -26 -11 11 -9 16 6 28 26 19 48 18 44 -2z"/>
<path d="M2400 4339 c-180 -16 -468 -91 -567 -149 -31 -18 -31 -18 -37 3 -8
31 -7 39 4 32 15 -9 48 12 55 35 15 48 -54 93 -85 55 -7 -8 -16 -12 -21 -9
-15 9 -10 -10 16 -70 14 -31 25 -59 25 -61 0 -3 -28 -19 -62 -36 -210 -105
-430 -292 -588 -499 -354 -466 -459 -1077 -280 -1630 43 -131 166 -376 247
-490 84 -117 269 -305 386 -392 409 -303 929 -420 1425 -318 614 125 1135 586
1332 1179 287 861 -106 1790 -923 2181 -209 100 -397 151 -633 170 -140 11
-156 11 -294 -1z m427 -35 c272 -39 557 -159 788 -332 347 -258 582 -631 677
-1072 30 -144 33 -501 4 -655 -24 -132 -94 -343 -152 -461 -388 -792 -1306
-1177 -2141 -898 -925 309 -1425 1310 -1117 2232 224 668 825 1141 1526 1201
122 11 274 5 415 -15z m-999 4 c32 -32 -6 -93 -40 -65 -21 16 -27 39 -16 60
10 20 39 22 56 5z"/>
<path d="M2370 4279 c-709 -80 -1307 -599 -1485 -1289 -62 -241 -70 -530 -20
-777 25 -119 90 -305 149 -423 351 -703 1123 -1079 1896 -924 116 24 303 89
420 148 703 351 1080 1125 924 1894 -24 119 -89 305 -148 423 -323 646 -1024
1029 -1736 948z m88 -49 c14 1 42 27 35 33 -3 4 -1 7 5 7 7 0 12 -5 12 -11 0
-7 8 -18 18 -25 15 -12 15 -15 2 -24 -19 -13 -46 -13 -71 0 -16 9 -19 7 -19
-15 0 -14 -5 -25 -10 -25 -11 0 -6 57 8 90 4 11 7 9 9 -7 3 -13 7 -23 11 -23z
m22 31 c0 -6 -4 -13 -10 -16 -5 -3 -10 1 -10 9 0 9 5 16 10 16 6 0 10 -4 10
-9z m60 -7 c0 -8 -4 -12 -10 -9 -5 3 -10 10 -10 16 0 5 5 9 10 9 6 0 10 -7 10
-16z m24 -21 c-3 -21 -11 -42 -17 -48 -6 -7 -8 -2 -3 15 3 14 6 35 6 48 0 12
5 22 10 22 7 0 8 -14 4 -37z m30 0 c-7 -40 -24 -69 -24 -41 0 32 13 78 22 78
5 0 6 -17 2 -37z m36 28 c0 -6 -4 -13 -10 -16 -5 -3 -10 1 -10 9 0 9 5 16 10
16 6 0 10 -4 10 -9z m60 -1 c0 -5 -5 -10 -11 -10 -5 0 -7 5 -4 10 3 6 8 10 11
10 2 0 4 -4 4 -10z m-334 -15 c-3 -8 -1 -15 4 -15 6 0 10 7 10 15 0 8 4 15 9
15 5 0 9 -13 9 -30 -1 -16 -5 -30 -9 -30 -4 0 -15 -7 -23 -16 -9 -8 -16 -11
-16 -6 0 5 -10 12 -22 15 -22 6 -22 7 7 36 34 35 40 37 31 16z m64 -7 c0 -43
-11 -67 -31 -65 -10 1 -19 5 -19 10 0 5 7 7 15 3 12 -4 15 3 15 34 0 22 5 40
10 40 6 0 10 -10 10 -22z m296 6 c-3 -9 -6 -21 -6 -27 0 -7 -4 -7 -9 2 -10 16
-4 41 11 41 6 0 7 -7 4 -16z m28 -6 c-15 -51 -27 -72 -31 -61 -6 17 16 83 28
83 6 0 7 -10 3 -22z m36 14 c0 -4 -5 -13 -11 -19 -7 -7 -3 -9 15 -6 14 3 32 0
40 -6 15 -13 19 -61 4 -61 -5 0 -7 4 -4 9 8 13 -57 21 -71 9 -9 -8 -13 -6 -13
6 0 9 5 16 11 16 6 0 9 7 5 15 -6 18 2 45 15 45 5 0 9 -4 9 -8z m-482 -47 c0
-25 -4 -45 -9 -45 -10 0 -12 73 -2 83 11 11 11 9 11 -38z m382 25 c22 -22 26
-45 8 -56 -7 -5 -9 -1 -6 13 4 16 2 19 -14 15 -13 -3 -16 -7 -8 -12 7 -4 1 -7
-15 -7 -16 0 -22 3 -15 7 8 5 7 9 -4 13 -10 4 -16 1 -16 -8 0 -8 -5 -15 -10
-15 -7 0 -7 6 0 20 6 11 7 20 3 20 -9 1 39 29 50 30 4 0 16 -9 27 -20z m160
10 c0 -5 -4 -10 -10 -10 -5 0 -10 5 -10 10 0 6 5 10 10 10 6 0 10 -4 10 -10z
m-590 -9 c0 -6 -4 -13 -10 -16 -5 -3 -10 1 -10 9 0 9 5 16 10 16 6 0 10 -4 10
-9z m20 -38 c0 -35 -3 -44 -11 -36 -7 7 -9 25 -5 47 9 50 16 45 16 -11z m594
32 c-6 -16 -24 -21 -24 -7 0 11 11 22 21 22 5 0 6 -7 3 -15z m74 2 c6 0 12 -5
12 -10 0 -5 -6 -7 -14 -4 -7 3 -19 0 -25 -6 -8 -8 -11 -6 -12 9 0 11 -8 2 -21
-26 -24 -53 -36 -41 -13 14 13 32 19 36 38 30 12 -4 28 -7 35 -7z m-748 -1 c0
-3 -4 -8 -10 -11 -5 -3 -10 -1 -10 4 0 6 5 11 10 11 6 0 10 -2 10 -4z m-30
-20 c0 -8 -4 -18 -10 -21 -5 -3 -10 3 -10 14 0 12 5 21 10 21 6 0 10 -6 10
-14z m817 -1 c-4 -8 -2 -17 3 -20 6 -4 8 -18 5 -33 -5 -23 -3 -21 15 11 11 20
25 37 30 37 14 0 13 -4 -11 -45 -14 -23 -27 -34 -36 -31 -8 3 -17 6 -19 6 -3
0 -2 5 1 10 3 6 -3 10 -13 10 -11 0 -25 7 -32 15 -11 13 -14 13 -26 -2 -11
-15 -13 -15 -14 -3 0 17 14 42 24 41 31 -4 66 1 61 9 -3 6 -1 10 5 10 7 0 10
-7 7 -15z m-877 -22 c0 -20 -3 -24 -11 -16 -7 7 -9 19 -6 27 10 24 17 19 17
-11z m30 -20 c0 -35 -3 -44 -10 -33 -13 20 -13 80 0 80 6 0 10 -21 10 -47z
m95 39 c6 -4 12 -18 13 -32 0 -14 -2 -20 -6 -15 -4 6 -23 10 -43 10 -29 0 -35
-3 -31 -17 2 -10 -1 -18 -7 -18 -18 0 -12 32 11 57 22 23 44 29 63 15z m785
-1 c0 -6 -4 -13 -10 -16 -5 -3 -10 1 -10 9 0 9 5 16 10 16 6 0 10 -4 10 -9z
m-940 -11 c0 -5 -5 -10 -11 -10 -5 0 -7 5 -4 10 3 6 8 10 11 10 2 0 4 -4 4
-10z m400 0 c0 -5 -4 -10 -10 -10 -5 0 -10 5 -10 10 0 6 5 10 10 10 6 0 10 -4
10 -10z m60 0 c0 -5 -5 -10 -11 -10 -5 0 -7 5 -4 10 3 6 8 10 11 10 2 0 4 -4
4 -10z m552 -5 c3 0 10 -4 15 -9 4 -5 -1 -7 -14 -4 -17 5 -25 -1 -38 -28 -9
-19 -20 -34 -25 -34 -6 0 0 20 12 45 13 26 26 41 32 37 6 -4 14 -7 18 -7z
m-1022 -15 c25 0 35 -17 20 -35 -17 -20 -66 -19 -74 1 -9 24 -7 46 4 39 6 -4
8 -11 5 -16 -3 -5 1 -6 9 -3 8 3 14 11 12 17 -1 7 -1 9 1 5 3 -5 13 -8 23 -8z
m270 0 c0 -5 -4 -10 -10 -10 -5 0 -10 5 -10 10 0 6 5 10 10 10 6 0 10 -4 10
-10z m450 0 c0 -5 -2 -10 -4 -10 -3 0 -8 5 -11 10 -3 6 -1 10 4 10 6 0 11 -4
11 -10z m337 -4 c-3 -8 1 -20 8 -26 19 -16 10 -30 -21 -30 -13 0 -24 -6 -24
-12 -1 -7 -7 1 -14 17 -16 36 -12 45 20 45 13 0 24 5 24 10 0 6 3 10 6 10 3 0
4 -6 1 -14z m-1124 -38 c5 -40 3 -57 -8 -47 -10 11 -17 89 -8 89 6 0 13 -19
16 -42z m1153 15 c-10 -10 -19 5 -10 18 6 11 8 11 12 0 2 -7 1 -15 -2 -18z
m-1181 -24 c6 -33 4 -43 -11 -54 -25 -18 -31 -10 -10 11 10 10 14 23 10 33
-14 34 -16 51 -6 51 6 0 13 -18 17 -41z m710 17 c17 -11 23 -21 17 -25 -7 -4
16 -5 51 -3 37 2 74 -1 92 -9 29 -12 28 -13 -40 -19 -74 -7 -117 -24 -149 -59
-19 -21 -19 -21 30 1 43 20 64 23 174 22 108 -1 136 -4 210 -28 233 -76 400
-204 473 -364 20 -44 22 -45 25 -20 5 38 -28 107 -74 158 l-39 43 43 -22 c23
-12 56 -40 72 -63 17 -23 30 -34 30 -25 0 13 6 14 30 7 46 -13 87 -47 115 -94
32 -54 33 -76 3 -70 -21 4 -20 3 2 -6 33 -14 78 -58 96 -92 22 -42 17 -42 -28
-4 -59 51 -185 85 -203 56 -3 -5 0 -10 7 -10 22 -1 153 -102 197 -153 201
-234 292 -561 206 -741 l-15 -31 29 34 c33 37 51 96 52 168 l1 48 15 -35 c10
-23 14 -55 11 -91 -3 -42 -1 -56 8 -52 7 2 19 -15 29 -41 21 -54 16 -133 -11
-174 l-17 -25 -14 24 c-9 15 -12 17 -7 4 16 -42 16 -132 0 -162 -15 -28 -15
-28 -16 32 -1 66 -24 128 -60 160 l-23 20 15 -30 c63 -123 42 -342 -51 -541
-79 -169 -163 -262 -292 -326 -70 -35 -72 -37 -39 -37 47 -1 108 28 160 76
l43 38 -21 -40 c-20 -41 -51 -73 -87 -93 -17 -9 -17 -11 -3 -12 14 0 15 -5 8
-31 -13 -46 -56 -97 -100 -119 -52 -27 -69 -26 -64 2 4 21 3 20 -6 -2 -14 -33
-58 -78 -92 -96 -42 -22 -45 -17 -11 18 45 48 73 107 73 153 l-1 40 -35 -40
-35 -40 6 35 c6 29 2 25 -24 -27 -117 -229 -555 -415 -789 -334 -50 17 -52 17
-36 0 23 -25 99 -49 158 -49 38 0 47 -3 38 -12 -16 -16 -115 -22 -154 -9 -28
9 -31 9 -15 -3 24 -19 22 -22 -28 -41 -30 -12 -61 -16 -94 -13 -53 5 -112 35
-93 47 7 4 -16 5 -51 3 -37 -2 -74 1 -92 9 -29 12 -28 13 40 19 70 6 139 33
164 64 10 12 1 11 -35 -6 -67 -30 -204 -36 -314 -14 -160 33 -332 119 -429
216 -28 28 -65 82 -91 135 -43 83 -45 86 -48 55 -5 -46 24 -115 67 -163 l36
-40 -40 21 c-44 22 -74 52 -99 97 l-16 30 6 -27 c7 -33 5 -33 -44 -13 -47 20
-79 50 -103 97 -24 46 -24 58 -1 58 15 1 14 2 -3 12 -32 17 -76 61 -91 90 -21
40 -17 45 14 16 42 -39 66 -48 129 -48 90 0 95 13 19 48 -36 17 -82 43 -101
58 -50 38 -148 171 -190 259 -78 161 -106 367 -66 483 17 50 17 52 0 36 -26
-23 -49 -99 -50 -163 -1 -56 -1 -56 -14 -26 -17 36 -19 112 -5 152 9 25 8 26
-4 11 -19 -25 -22 -23 -41 27 -12 30 -16 61 -13 94 5 53 35 112 47 93 4 -7 5
16 3 51 -2 37 1 74 9 92 12 29 13 28 19 -40 7 -73 24 -117 58 -148 16 -15 15
-10 -7 35 -23 47 -26 65 -25 153 1 204 101 443 244 583 48 46 82 68 155 98 17
7 15 9 -14 12 -49 5 -71 -3 -120 -44 l-43 -37 20 39 c22 43 52 73 97 98 30 16
30 16 3 10 -26 -6 -27 -5 -19 24 17 59 48 96 108 126 45 23 62 21 57 -6 -4
-21 -3 -20 6 2 14 33 58 78 92 96 42 22 43 17 3 -27 -46 -51 -65 -96 -65 -151
l0 -43 29 50 c80 140 329 304 546 360 103 27 245 26 308 -3 67 -30 56 -5 -13
31 -40 20 -69 27 -114 28 -60 1 -60 1 -31 14 36 17 112 19 152 5 26 -9 27 -9
9 5 -23 17 -21 19 24 40 45 20 138 15 175 -9z m245 14 c0 -5 -5 -10 -11 -10
-5 0 -7 5 -4 10 3 6 8 10 11 10 2 0 4 -4 4 -10z m241 -33 c-30 -47 -47 -46
-20 1 13 22 27 38 32 35 4 -2 -1 -19 -12 -36z m-1218 -9 c8 -5 6 -13 -6 -26
-9 -10 -17 -24 -17 -30 0 -7 -5 -12 -11 -12 -5 0 -7 5 -4 10 3 6 1 10 -4 10
-6 0 -11 -8 -11 -17 0 -14 -2 -15 -9 -4 -5 8 -8 24 -6 37 1 13 -2 21 -6 18 -5
-3 -9 2 -9 11 0 11 6 15 18 11 9 -3 24 -1 32 4 8 5 11 10 7 10 -5 0 -5 6 0 13
5 8 9 6 11 -8 3 -11 9 -23 15 -27z m247 38 c0 -3 -4 -8 -10 -11 -5 -3 -10 -1
-10 4 0 6 5 11 10 11 6 0 10 -2 10 -4z m998 -44 c-12 -19 -16 -32 -10 -28 7 4
12 2 12 -3 0 -13 -10 -14 -28 -2 -11 7 -9 15 9 44 31 46 46 36 17 -11z m-1078
29 c0 -6 -4 -13 -10 -16 -5 -3 -10 1 -10 9 0 9 5 16 10 16 6 0 10 -4 10 -9z
m1140 -12 c12 -9 11 -10 -5 -4 -18 6 -18 5 3 -15 27 -26 27 -31 2 -53 -17 -14
-20 -14 -20 -2 0 16 -15 21 -23 8 -2 -5 -3 -3 -1 3 1 6 -3 17 -9 24 -9 10 -9
14 1 17 6 3 12 11 12 19 0 17 19 18 40 3z m-1170 -9 c0 -5 -5 -10 -11 -10 -5
0 -7 5 -4 10 3 6 8 10 11 10 2 0 4 -4 4 -10z m980 0 c0 -5 -4 -10 -10 -10 -5
0 -10 5 -10 10 0 6 5 10 10 10 6 0 10 -4 10 -10z m-1201 -37 c13 -46 13 -53 2
-53 -5 0 -12 12 -15 28 -4 15 -9 35 -12 45 -3 9 -1 17 5 17 5 0 15 -17 20 -37z
m166 28 c3 -5 1 -12 -5 -16 -5 -3 -10 1 -10 9 0 18 6 21 15 7z m1265 -1 c0 -5
-4 -10 -10 -10 -5 0 -10 5 -10 10 0 6 5 10 10 10 6 0 10 -4 10 -10z m-1455
-55 c5 -28 4 -37 -3 -30 -6 6 -14 28 -17 50 -5 28 -4 37 3 30 6 -5 14 -28 17
-50z m1459 9 c-26 -34 -44 -44 -44 -24 0 6 7 13 15 16 8 4 15 12 15 18 0 16
21 36 32 30 4 -3 -4 -21 -18 -40z m-1494 16 c0 -5 -4 -10 -10 -10 -5 0 -10 5
-10 10 0 6 5 10 10 10 6 0 10 -4 10 -10z m1554 4 c21 -8 21 -24 0 -24 -9 0
-13 5 -9 13 4 6 -7 -3 -24 -22 -37 -41 -52 -35 -21 8 22 32 28 35 54 25z
m-1617 -36 c-3 -8 -6 -5 -6 6 -1 11 2 17 5 13 3 -3 4 -12 1 -19z m1683 -10 c0
-5 -4 -8 -10 -8 -5 0 -10 5 -10 10 0 6 -5 10 -12 10 -7 0 -5 -7 5 -18 18 -20
17 -46 -3 -65 -10 -10 -12 -9 -8 3 7 18 -48 55 -57 39 -4 -5 -11 -7 -16 -3
-15 9 26 44 51 44 11 0 20 5 20 10 0 6 8 5 20 -2 11 -7 20 -16 20 -20z m-1610
9 c0 -21 -22 -37 -51 -37 -23 0 -26 -3 -21 -27 6 -37 -12 -19 -27 26 -12 36
-6 56 9 31 8 -13 12 -13 27 3 20 20 63 23 63 4z m-111 -29 c18 -50 22 -68 13
-68 -11 0 -42 76 -34 84 9 10 12 7 21 -16z m1740 -4 c-14 -18 -24 -11 -15 11
3 9 11 13 16 10 8 -5 7 -11 -1 -21z m-1761 -35 c7 -23 10 -44 7 -47 -3 -3 -5
3 -5 14 0 15 -2 16 -9 4 -6 -8 -8 -17 -6 -20 2 -3 -13 -5 -33 -5 -38 0 -52 9
-52 35 1 11 4 10 15 -4 13 -18 15 -18 15 -3 0 10 11 22 25 27 16 6 23 14 19
25 -3 8 -2 15 2 15 5 0 15 -19 22 -41z m142 37 c0 -3 -4 -8 -10 -11 -5 -3 -10
-1 -10 4 0 6 5 11 10 11 6 0 10 -2 10 -4z m1650 -3 c0 -4 -12 -20 -27 -37 -16
-17 -20 -24 -10 -17 14 11 17 11 17 -2 0 -22 -12 -27 -32 -13 -15 11 -14 15 8
44 24 30 44 41 44 25z m-1846 -27 c-10 -8 -21 -12 -23 -10 -3 2 4 11 15 18 10
8 21 12 23 10 3 -2 -4 -11 -15 -18z m141 4 c3 -5 1 -10 -4 -10 -6 0 -11 5 -11
10 0 6 2 10 4 10 3 0 8 -4 11 -10z m1739 4 c9 -3 16 -10 16 -16 0 -5 -6 -6
-12 -1 -7 4 -21 6 -32 4 -11 -1 -16 2 -12 8 8 12 18 14 40 5z m16 -39 c14 -17
5 -65 -13 -65 -6 0 -19 5 -27 11 -13 9 -12 10 3 5 24 -8 21 6 -4 22 -12 8 -18
9 -14 3 3 -6 1 -11 -5 -11 -7 0 -9 7 -6 16 3 9 6 20 6 25 0 15 46 10 60 -6z
m30 11 c0 -3 -4 -8 -10 -11 -5 -3 -10 -1 -10 4 0 6 5 11 10 11 6 0 10 -2 10
-4z m-1950 -83 c0 -7 -4 -13 -9 -13 -12 0 -41 72 -33 84 5 10 41 -51 42 -71z
m1960 52 c-7 -9 -15 -13 -17 -11 -7 7 7 26 19 26 6 0 6 -6 -2 -15z m-2010 -16
c0 -5 -4 -9 -10 -9 -5 0 -10 7 -10 16 0 8 5 12 10 9 6 -3 10 -10 10 -16z
m2012 -21 c-17 -18 -35 -29 -39 -25 -4 4 9 20 28 36 44 38 52 30 11 -11z
m-2021 2 c23 0 24 -9 3 -38 -20 -28 -54 -30 -54 -2 0 11 6 23 14 26 8 3 14 11
12 17 -1 7 -1 9 1 5 3 -5 13 -8 24 -8z m80 8 c0 -10 2 -10 6 0 2 6 9 12 15 12
6 0 3 -9 -7 -20 -14 -16 -20 -17 -27 -8 -11 18 -10 28 2 28 6 0 10 -6 11 -12z
m2019 -22 c0 -4 -6 -4 -12 2 -8 5 -22 6 -33 1 -18 -7 -17 -8 6 -8 30 -1 49
-18 49 -43 0 -27 -37 -22 -56 7 -9 14 -20 22 -26 19 -5 -3 1 -14 13 -25 29
-25 11 -24 -20 2 l-24 20 34 28 c27 23 37 26 51 17 10 -6 18 -15 18 -20z
m-2148 2 c-7 -7 -12 -21 -12 -32 -1 -19 -2 -19 -11 -4 -10 18 5 47 26 48 5 0
4 -5 -3 -12z m88 -26 c0 -4 -8 -12 -19 -19 -17 -11 -18 -10 -7 12 9 21 26 25
26 7z m2097 -2 c13 0 13 -2 2 -16 -12 -15 -11 -16 9 -10 31 10 27 1 -13 -29
-33 -26 -35 -26 -52 -9 -17 17 -17 18 1 11 28 -11 47 9 35 39 -9 26 -12 50 -2
27 2 -7 12 -13 20 -13z m-2207 -30 c22 -43 24 -50 13 -50 -11 0 -43 58 -43 76
0 23 9 16 30 -26z m-17 -28 c17 -29 17 -33 2 -48 -15 -15 -15 -14 -9 10 5 21
1 32 -15 47 -17 16 -21 17 -21 4 0 -8 7 -15 15 -15 8 0 15 -5 15 -11 0 -20
-21 -49 -36 -49 -8 0 -12 -5 -9 -10 5 -8 11 -7 21 1 8 6 14 8 14 5 0 -9 -30
-40 -33 -35 -1 2 -13 19 -25 37 -13 19 -21 36 -17 40 3 4 11 0 16 -8 9 -12 10
-10 6 7 -4 16 -1 20 11 16 11 -5 14 -2 10 9 -7 17 11 40 27 35 5 -2 18 -18 28
-35z m55 10 c6 -18 -15 -14 -22 4 -4 10 -1 14 6 12 6 -2 14 -10 16 -16z m2228
-6 c19 -19 18 -32 -1 -16 -13 11 -21 9 -46 -9 -17 -13 -33 -20 -36 -17 -4 3
-4 7 -2 9 2 2 17 13 33 25 34 26 33 26 52 8z m12 -38 c7 -7 12 -23 12 -37 0
-23 1 -23 18 -8 21 19 32 22 32 8 0 -5 -16 -19 -35 -31 -31 -19 -37 -20 -50
-6 -8 8 -15 18 -15 22 0 5 5 3 12 -4 14 -14 28 -16 28 -4 0 4 -10 12 -22 17
-29 13 -37 55 -11 55 11 0 24 -5 31 -12z m38 -26 c-4 -3 -11 0 -16 8 -15 24
-11 33 6 15 9 -9 13 -19 10 -23z m-2418 -17 c24 -37 26 -45 15 -45 -8 0 -53
65 -53 75 0 15 18 1 38 -30z m2330 15 c7 -11 10 -20 6 -20 -7 0 -34 27 -34 34
0 13 16 5 28 -14z m-2353 -35 c26 -33 26 -35 10 -52 -17 -16 -17 -16 -10 6 5
16 4 21 -4 17 -6 -4 -11 -13 -11 -20 0 -7 -14 -19 -31 -27 -28 -13 -29 -16
-15 -28 14 -12 16 -12 10 3 -3 9 -1 16 5 16 15 0 14 -25 -2 -39 -10 -8 -19 -4
-36 20 -13 17 -25 28 -29 25 -3 -4 7 -19 23 -36 27 -28 27 -29 9 -47 -16 -16
-17 -16 -11 -1 4 11 -3 28 -17 45 -21 25 -22 31 -10 47 11 16 16 17 29 6 10
-8 15 -9 15 -1 0 6 -4 11 -10 11 -5 0 -10 5 -10 11 0 6 6 9 14 6 8 -3 17 1 20
9 3 8 17 14 31 14 24 0 25 1 11 16 -15 14 -21 34 -12 34 3 0 17 -16 31 -35z
m-40 5 c3 -5 1 -10 -4 -10 -6 0 -11 5 -11 10 0 6 2 10 4 10 3 0 8 -4 11 -10z
m2521 -5 c-3 -9 0 -15 9 -15 8 0 15 -5 15 -10 0 -7 -6 -8 -17 -1 -12 6 -26 5
-46 -6 -16 -8 -31 -12 -35 -9 -6 7 -8 6 38 34 42 26 44 26 36 7z m23 -49 c15
-18 11 -74 -6 -80 -7 -3 -15 -1 -18 4 -4 6 -1 10 4 10 6 0 11 5 11 11 0 6 -9
8 -22 4 -14 -4 -18 -3 -11 2 8 6 9 14 3 23 -6 8 -10 21 -10 28 0 16 35 15 49
-2z m-59 -6 c0 -5 -5 -10 -11 -10 -5 0 -7 5 -4 10 3 6 8 10 11 10 2 0 4 -4 4
-10z m100 -10 c0 -5 -4 -10 -10 -10 -5 0 -10 5 -10 10 0 6 5 10 10 10 6 0 10
-4 10 -10z m6 -35 c-26 -19 -42 -19 -26 0 7 8 20 15 29 15 13 -1 13 -3 -3 -15z
m-2681 -15 c3 -5 2 -10 -4 -10 -5 0 -13 5 -16 10 -3 6 -2 10 4 10 5 0 13 -4
16 -10z m2715 1 c0 -5 -12 -14 -27 -19 -16 -5 -36 -13 -45 -17 -32 -13 -19 11
15 28 37 18 57 21 57 8z m-2720 -21 c23 15 30 12 30 -14 0 -22 -32 -56 -52
-56 -4 0 -7 18 -6 40 1 23 4 36 7 31 4 -6 12 -6 21 -1z m2720 -10 c-22 -5 -23
-7 -7 -13 11 -4 23 -5 28 -2 5 4 6 -1 3 -9 -8 -22 3 -49 17 -40 8 4 7 9 -2 15
-7 4 -10 11 -6 15 9 9 37 -27 30 -39 -5 -8 -64 -4 -81 7 -18 11 -14 64 5 75
10 5 22 7 28 3 5 -3 -1 -9 -15 -12z m-2763 -21 c-4 -15 2 -29 20 -45 14 -13
23 -27 19 -31 -4 -4 -21 8 -39 26 -21 22 -28 35 -19 38 6 3 12 11 12 19 0 8 3
14 6 14 4 0 4 -9 1 -21z m2718 1 c-3 -5 -10 -10 -16 -10 -5 0 -9 5 -9 10 0 6
7 10 16 10 8 0 12 -4 9 -10z m-2647 -40 c-7 -11 -16 -20 -20 -20 -11 0 -10 9
5 25 18 21 29 18 15 -5z m2672 -10 c18 -16 27 -30 20 -30 -12 0 -23 10 -49 43
-21 26 -7 20 29 -13z m-2722 -60 c-7 -10 -18 -16 -25 -13 -13 5 -18 -14 -13
-46 1 -13 -1 -13 -14 -2 -19 16 -22 1 -4 -17 9 -9 9 -12 0 -12 -7 0 -15 7 -18
15 -4 8 -12 15 -19 15 -25 0 -34 24 -18 45 10 13 14 14 10 4 -3 -9 -1 -22 4
-30 6 -10 9 -7 9 13 0 35 31 53 63 37 17 -9 15 -4 -11 23 -41 44 -29 59 14 17
27 -26 31 -35 22 -49z m-60 35 c-2 -6 -6 -9 -10 -7 -5 1 -8 -2 -8 -8 0 -5 -5
-10 -10 -10 -6 0 -5 8 2 20 13 20 32 23 26 5z m2882 7 c0 -13 -79 -42 -85 -32
-3 4 12 15 33 23 43 19 52 20 52 9z m7 -36 c-15 -12 -16 -14 -2 -20 9 -3 15
-18 15 -37 0 -26 -3 -30 -17 -24 -10 4 -23 8 -29 8 -6 0 -10 7 -8 16 12 66 15
71 37 71 21 -1 21 -2 4 -14z m-45 -21 c-2 -14 -9 -25 -14 -25 -5 0 -7 4 -4 9
4 5 0 12 -6 14 -10 4 -9 8 2 16 23 16 28 13 22 -14z m88 -19 c0 -3 -4 -8 -10
-11 -5 -3 -10 -1 -10 4 0 6 5 11 10 11 6 0 10 -2 10 -4z m-2966 -45 c26 -27
27 -30 13 -62 -13 -30 -15 -31 -14 -9 1 14 5 28 9 31 4 3 -6 16 -24 29 l-31
23 16 -24 c29 -41 17 -99 -20 -99 -19 0 -16 51 4 65 11 8 13 14 5 19 -7 4 -12
2 -12 -3 0 -6 -4 -11 -9 -11 -5 0 -1 16 7 35 9 19 19 35 22 35 4 0 19 -13 34
-29z m2966 9 c-8 -5 -17 -7 -19 -4 -3 3 1 9 9 14 8 5 17 7 19 4 3 -3 -1 -9 -9
-14z m-53 -16 c-3 -3 -12 -4 -19 -1 -8 3 -5 6 6 6 11 1 17 -2 13 -5z m73 -2
c0 -12 -71 -32 -84 -24 -6 3 7 12 29 18 50 15 55 16 55 6z m15 -31 c-14 -12
-93 -25 -80 -13 11 11 38 19 70 21 11 1 15 -3 10 -8z m15 -21 c0 -5 -4 -10
-10 -10 -5 0 -10 5 -10 10 0 6 5 10 10 10 6 0 10 -4 10 -10z m-22 -12 c13 -13
16 -50 5 -61 -11 -12 -43 25 -43 50 0 25 19 30 38 11z m-48 -8 c0 -5 -4 -10
-10 -10 -5 0 -10 5 -10 10 0 6 5 10 10 10 6 0 10 -4 10 -10z m-3020 -16 c0 -9
-5 -13 -12 -9 -7 3 -4 -1 7 -9 58 -44 55 -40 40 -60 -8 -11 -18 -16 -22 -12
-4 4 -2 11 5 15 10 6 7 12 -12 24 -31 21 -48 22 -22 2 20 -15 20 -15 0 -15
-31 0 -33 7 -16 45 17 37 32 46 32 19z m3110 -24 c0 -5 -4 -10 -10 -10 -5 0
-10 5 -10 10 0 6 5 10 10 10 6 0 10 -4 10 -10z m-3055 -10 c3 -5 2 -10 -4 -10
-5 0 -13 5 -16 10 -3 6 -2 10 4 10 5 0 13 -4 16 -10z m3064 -20 c-14 -8 -65
-14 -84 -10 -5 1 10 8 35 14 45 13 75 10 49 -4z m-3154 -20 c3 -5 -1 -10 -10
-10 -9 0 -13 5 -10 10 3 6 8 10 10 10 2 0 7 -4 10 -10z m38 -10 c-3 -11 0 -20
6 -20 6 0 11 -5 11 -12 0 -6 -3 -8 -7 -5 -3 4 -13 -2 -20 -13 -11 -15 -21 -18
-40 -14 -35 9 -23 -10 17 -26 16 -7 30 -16 30 -21 0 -13 -6 -11 -51 12 -31 15
-38 23 -30 33 6 7 7 17 3 21 -4 5 1 5 11 2 18 -7 25 17 7 26 -6 3 -5 4 2 3 7
-2 24 5 37 15 30 24 30 23 24 -1z m3131 11 c7 -10 -27 -21 -68 -21 -36 0 -28
10 16 20 46 11 46 11 52 1z m16 -32 c0 -6 -7 -8 -16 -5 -8 3 -12 2 -9 -4 3 -6
13 -10 21 -10 17 0 19 -16 2 -23 -8 -4 -7 -6 3 -6 27 -1 31 -38 5 -45 -34 -9
-76 -7 -76 4 0 6 10 10 23 9 12 -1 31 -1 42 0 16 1 17 3 5 11 -9 6 -17 5 -22
-3 -5 -9 -10 -9 -19 0 -6 6 -17 10 -23 9 -6 -2 -8 -1 -3 1 13 8 8 23 -8 23
-12 0 -11 4 4 19 29 29 71 41 71 20z m-70 -9 c0 -5 -4 -10 -10 -10 -5 0 -10 5
-10 10 0 6 5 10 10 10 6 0 10 -4 10 -10z m-3069 -33 c-6 -8 -8 -17 -4 -20 3
-4 -1 -7 -10 -7 -20 0 -21 6 -4 25 15 18 33 20 18 2z m-21 -77 c0 -14 -16 -12
-29 4 -7 8 -23 17 -37 20 -14 4 -22 11 -19 16 7 12 85 -26 85 -40z m-50 5 c5
3 10 5 10 3 0 -2 4 -18 10 -37 5 -19 7 -31 3 -27 -4 3 -15 -1 -24 -10 -17 -16
-19 -16 -25 0 -3 9 -4 28 -2 41 3 14 1 25 -3 25 -5 0 -9 5 -9 11 0 8 4 8 15
-1 8 -6 19 -9 25 -5z m3240 6 c0 -8 -47 -21 -76 -21 -31 0 -11 19 24 23 20 2
40 4 45 5 4 1 7 -2 7 -7z m10 -32 c0 -6 -6 -9 -14 -6 -11 5 -12 0 -3 -23 6
-16 14 -27 18 -24 4 2 10 0 13 -5 8 -13 -47 -21 -61 -9 -7 6 -13 21 -13 34 0
17 -4 22 -15 18 -8 -4 -15 -1 -15 6 0 7 8 10 19 7 10 -2 25 -1 32 4 19 12 39
11 39 -2z m-3290 -29 c0 -5 -4 -10 -10 -10 -5 0 -10 5 -10 10 0 6 5 10 10 10
6 0 10 -4 10 -10z m3300 0 c0 -5 -2 -10 -4 -10 -3 0 -8 5 -11 10 -3 6 -1 10 4
10 6 0 11 -4 11 -10z m-3275 -37 c19 -9 35 -20 35 -25 0 -9 -70 18 -84 33 -16
15 9 11 49 -8z m45 7 c0 -5 -4 -10 -9 -10 -6 0 -13 5 -16 10 -3 6 1 10 9 10 9
0 16 -4 16 -10z m3155 0 c3 -5 1 -10 -4 -10 -6 0 -11 5 -11 10 0 6 2 10 4 10
3 0 8 -4 11 -10z m-3205 -35 c27 -14 40 -55 17 -55 -5 0 -7 7 -4 15 4 9 -5 18
-28 27 -19 6 -35 16 -35 20 0 12 18 10 50 -7z m3235 5 c3 -5 -3 -10 -14 -10
-12 0 -21 5 -21 10 0 6 6 10 14 10 8 0 18 -4 21 -10z m55 0 c0 -5 -9 -10 -20
-10 -11 0 -20 5 -20 10 0 6 9 10 20 10 11 0 20 -4 20 -10z m-3320 -26 c0 -3
-6 -12 -14 -20 -13 -12 -15 -12 -13 6 1 17 27 31 27 14z m3330 -4 c0 -5 -20
-10 -44 -10 -25 0 -48 5 -51 10 -4 6 13 10 44 10 28 0 51 -4 51 -10z m-3294
-32 c9 -18 13 -30 9 -26 -4 4 -16 -3 -26 -15 l-19 -22 -6 22 c-4 13 -11 20
-20 16 -8 -3 -14 0 -14 7 0 6 4 9 9 6 5 -3 16 5 25 19 9 14 18 25 21 25 2 0
12 -15 21 -32z m3227 -8 c-3 -11 -7 -20 -8 -20 -1 0 -5 9 -8 20 -3 12 0 20 8
20 8 0 11 -8 8 -20z m67 9 c0 -6 -7 -8 -16 -5 -8 3 -12 2 -9 -4 3 -6 13 -10
21 -10 8 0 14 -9 14 -20 0 -11 -7 -20 -15 -20 -8 0 -15 -4 -15 -10 0 -5 6 -7
14 -4 8 3 17 1 20 -5 8 -12 -80 -9 -91 4 -5 4 0 5 9 2 15 -5 16 -1 11 25 -5
23 -2 34 12 45 23 16 45 17 45 2z m-3334 -66 c-8 -8 -36 5 -36 17 0 7 6 7 21
0 11 -7 18 -14 15 -17z m54 17 c0 -5 -4 -10 -10 -10 -5 0 -10 5 -10 10 0 6 5
10 10 10 6 0 10 -4 10 -10z m-16 -16 c22 -9 10 -23 -14 -17 -11 3 -17 9 -14
14 6 11 8 11 28 3z m2 -53 c1 -21 -10 -28 -20 -12 -4 5 -1 11 5 13 7 2 -7 10
-30 16 -23 7 -39 17 -36 22 3 5 22 3 43 -4 26 -9 37 -19 38 -35z m-61 9 c3 -5
-1 -10 -9 -10 -9 0 -16 5 -16 10 0 6 4 10 9 10 6 0 13 -4 16 -10z m3375 0 c0
-5 -20 -10 -45 -10 -25 0 -45 5 -45 10 0 6 20 10 45 10 25 0 45 -4 45 -10z
m-3330 -53 c0 -15 -20 -47 -30 -47 -5 0 -12 9 -15 20 -4 11 -11 18 -16 15 -5
-4 -9 -1 -9 4 0 6 5 11 10 11 6 0 10 5 10 11 0 5 -4 7 -10 4 -5 -3 -10 -1 -10
5 0 7 7 10 15 7 8 -4 17 -1 21 5 7 11 34 -16 34 -35z m3330 23 c0 -9 -78 -6
-88 4 -3 3 16 6 41 6 26 0 47 -4 47 -10z m-70 -20 c0 -5 -5 -10 -11 -10 -5 0
-7 5 -4 10 3 6 8 10 11 10 2 0 4 -4 4 -10z m59 -21 c14 -19 18 -30 10 -27 -8
3 -20 -2 -26 -11 -12 -15 -14 -14 -27 2 -7 9 -19 17 -27 17 -10 1 -9 4 4 11 9
5 17 17 17 24 0 25 25 17 49 -16z m16 11 c3 -5 1 -10 -4 -10 -6 0 -11 5 -11
10 0 6 2 10 4 10 3 0 8 -4 11 -10z m-3382 -34 c4 -10 0 -12 -14 -9 -22 6 -26
23 -5 23 8 0 16 -6 19 -14z m57 -16 c0 -5 -4 -10 -9 -10 -6 0 -13 5 -16 10 -3
6 1 10 9 10 9 0 16 -4 16 -10z m3255 0 c3 -5 1 -10 -4 -10 -6 0 -11 5 -11 10
0 6 2 10 4 10 3 0 8 -4 11 -10z m-3293 -10 c28 -8 36 -16 35 -31 -1 -11 -7
-17 -13 -15 -9 3 -11 -5 -8 -27 3 -18 0 -39 -6 -47 -9 -13 -12 -13 -24 3 -7 9
-18 17 -25 17 -6 0 -11 5 -11 11 0 5 4 8 9 4 5 -3 12 4 16 15 3 11 18 26 32
34 l26 13 -42 7 c-22 3 -41 11 -41 16 0 12 6 12 52 0z m3368 0 c0 -5 -7 -10
-15 -10 -8 0 -15 5 -15 10 0 6 7 10 15 10 8 0 15 -4 15 -10z m-1 -26 c2 -2 2
-6 -1 -9 -9 -9 -88 7 -88 17 0 9 79 2 89 -8z m-3384 -4 c3 -5 -3 -10 -14 -10
-12 0 -21 5 -21 10 0 6 6 10 14 10 8 0 18 -4 21 -10z m3384 -26 c10 -10 -8
-12 -47 -7 -23 3 -42 10 -42 15 0 9 79 2 89 -8z m-3399 -4 c0 -5 -4 -10 -10
-10 -5 0 -10 5 -10 10 0 6 5 10 10 10 6 0 10 -4 10 -10z m3371 -31 c7 -13 6
-26 -1 -40 -15 -27 -34 -19 -38 16 -3 21 -6 25 -12 14 -7 -10 -9 -8 -8 7 3 28
44 29 59 3z m29 1 c0 -5 -4 -10 -10 -10 -5 0 -10 5 -10 10 0 6 5 10 10 10 6 0
10 -4 10 -10z m-3395 -30 c3 -5 -1 -10 -9 -10 -9 0 -16 5 -16 10 0 6 4 10 9
10 6 0 13 -4 16 -10z m3395 0 c0 -5 -5 -10 -11 -10 -5 0 -7 5 -4 10 3 6 8 10
11 10 2 0 4 -4 4 -10z m-3330 -10 c0 -5 -7 -10 -16 -10 -8 0 -12 5 -9 10 3 6
10 10 16 10 5 0 9 -4 9 -10z m-1 -25 c10 -11 -7 -13 -47 -8 -23 3 -42 10 -42
16 0 9 78 2 89 -8z m3331 5 c0 -5 -7 -10 -15 -10 -8 0 -15 5 -15 10 0 6 7 10
15 10 8 0 15 -4 15 -10z m-32 -15 c12 -3 22 -11 22 -16 0 -6 -9 -8 -20 -5 -11
3 -29 9 -40 12 -11 3 -20 10 -20 15 0 6 8 8 18 5 9 -2 27 -7 40 -11z m-3319
-11 c17 -4 31 -11 31 -16 0 -6 -8 -7 -17 -3 -10 4 -30 7 -45 6 -15 -1 -29 3
-33 9 -7 11 18 13 64 4z m3304 -15 c20 -5 37 -15 37 -21 0 -6 -8 -7 -17 -3
-10 3 -30 9 -45 12 -16 3 -28 9 -28 14 0 11 7 11 53 -2z m-3273 -32 c0 -5 -4
-5 -10 -2 -18 11 -11 -27 8 -41 15 -11 13 -13 -16 -12 -41 1 -61 33 -43 66 9
17 14 19 36 9 14 -7 25 -16 25 -20z m-70 13 c0 -5 -4 -10 -10 -10 -5 0 -10 5
-10 10 0 6 5 10 10 10 6 0 10 -4 10 -10z m3350 -30 c32 -31 38 -45 17 -37 -7
3 -19 -3 -25 -13 -9 -16 -8 -20 8 -25 11 -4 20 -11 20 -17 0 -6 -8 -7 -17 -3
-10 4 -30 12 -45 17 -16 5 -28 14 -28 19 0 13 14 11 29 -3 9 -9 8 -2 -3 25 -8
21 -11 35 -7 32 5 -2 11 2 14 10 4 9 1 12 -9 8 -7 -3 -14 0 -14 6 0 20 29 11
60 -19z m30 0 c0 -5 -4 -10 -10 -10 -5 0 -10 5 -10 10 0 6 5 10 10 10 6 0 10
-4 10 -10z m-3375 -30 c3 -5 2 -10 -4 -10 -5 0 -13 5 -16 10 -3 6 -2 10 4 10
5 0 13 -4 16 -10z m75 -30 c0 -5 -20 -10 -45 -10 -25 0 -45 5 -45 10 0 6 20
10 45 10 25 0 45 -4 45 -10z m3290 0 c0 -5 -4 -10 -10 -10 -5 0 -10 5 -10 10
0 6 5 10 10 10 6 0 10 -4 10 -10z m-3290 -29 c0 -12 -78 -12 -85 0 -4 5 14 9
39 9 25 0 46 -4 46 -9z m3244 -6 c49 -21 46 -37 -4 -18 -22 9 -40 20 -40 25 0
11 2 10 44 -7z m-3248 -18 c8 3 14 0 14 -7 0 -6 -4 -8 -10 -5 -5 3 -10 1 -10
-4 0 -6 4 -11 9 -11 5 0 4 -11 -2 -25 -15 -30 -15 -30 -49 0 -27 23 -38 43
-19 30 6 -3 15 4 21 16 8 14 15 18 22 11 6 -6 17 -8 24 -5z m3224 -7 c0 -5 -7
-10 -15 -10 -8 0 -15 5 -15 10 0 6 7 10 15 10 8 0 15 -4 15 -10z m56 -21 c3
-5 -2 -9 -10 -9 -9 0 -16 -8 -16 -19 0 -21 -25 -45 -38 -37 -6 3 -12 19 -14
35 -2 17 -1 28 3 25 4 -2 10 0 13 5 7 11 55 11 62 0z m-3331 -29 c3 -5 1 -10
-4 -10 -6 0 -11 5 -11 10 0 6 2 10 4 10 3 0 8 -4 11 -10z m75 0 c0 -5 -4 -10
-10 -10 -5 0 -10 5 -10 10 0 6 5 10 10 10 6 0 10 -4 10 -10z m3247 -20 c-1
-11 -7 -20 -14 -20 -11 0 -11 4 -1 20 7 11 14 20 15 20 1 0 1 -9 0 -20z
m-3237 -11 c0 -5 -22 -9 -50 -9 -27 0 -50 4 -50 9 0 5 23 9 50 9 28 0 50 -4
50 -9z m3168 -7 c2 -7 -2 -10 -12 -6 -9 3 -16 11 -16 16 0 13 23 5 28 -10z
m-3168 -22 c0 -5 -20 -10 -45 -10 -25 0 -45 5 -45 10 0 6 20 10 45 10 25 0 45
-4 45 -10z m3185 -7 c29 -14 47 -33 30 -33 -12 0 -75 35 -75 42 0 11 4 10 45
-9z m40 7 c3 -5 -1 -10 -9 -10 -8 0 -18 5 -21 10 -3 6 1 10 9 10 8 0 18 -4 21
-10z m-3221 -27 c-5 -2 -8 -19 -6 -38 3 -25 0 -35 -10 -35 -19 0 -38 20 -38
42 0 10 -7 18 -15 18 -8 0 -15 4 -15 9 0 5 21 9 47 8 26 0 43 -2 37 -4z m3163
-5 c4 -7 14 -13 22 -13 8 0 16 -6 19 -14 3 -10 0 -12 -12 -8 -12 5 -16 0 -16
-18 0 -13 -5 -27 -11 -30 -6 -5 -4 -12 8 -21 13 -10 14 -13 4 -14 -41 -1 -67
64 -36 90 13 11 13 14 -2 26 -17 12 -17 13 -1 14 9 0 21 -6 25 -12z m-32 -18
c3 -5 1 -10 -4 -10 -6 0 -11 5 -11 10 0 6 2 10 4 10 3 0 8 -4 11 -10z m-3110
-30 c3 -5 1 -10 -4 -10 -6 0 -11 5 -11 10 0 6 2 10 4 10 3 0 8 -4 11 -10z
m-68 -15 c10 -11 26 -14 51 -10 28 5 33 4 22 -4 -16 -11 -98 -15 -87 -4 4 3 2
12 -4 20 -16 18 -1 17 18 -2z m3160 -19 c-4 -10 7 -23 31 -37 20 -12 32 -24
26 -26 -6 -2 -28 6 -48 18 -27 16 -34 25 -26 34 5 6 7 15 3 18 -3 4 -1 7 6 7
7 0 11 -6 8 -14z m83 0 c0 -3 -4 -8 -10 -11 -5 -3 -10 -1 -10 4 0 6 5 11 10
11 6 0 10 -2 10 -4z m-3170 -27 c-14 -4 -38 -7 -54 -8 -41 -1 -20 17 24 21 44
4 63 -4 30 -13z m25 -19 c3 -5 -1 -10 -9 -10 -9 0 -16 5 -16 10 0 6 4 10 9 10
6 0 13 -4 16 -10z m3071 -17 c-8 -8 -36 5 -36 17 0 7 6 7 21 0 11 -7 18 -14
15 -17z m-3095 0 c6 -6 16 -11 22 -9 7 1 9 1 5 -1 -5 -3 -8 -18 -8 -34 0 -16
-3 -29 -7 -29 -16 0 -43 35 -43 56 0 17 -4 21 -20 17 -11 -3 -20 0 -20 6 0 15
58 10 71 -6z m3085 -13 c26 10 57 3 49 -11 -3 -4 -13 -5 -22 -2 -14 5 -15 1
-10 -29 6 -43 -6 -69 -25 -50 -9 9 -9 12 5 12 9 0 17 5 17 10 0 7 -6 7 -19 0
-30 -15 -31 -14 -29 37 1 26 3 42 5 36 3 -8 12 -9 29 -3z m-3126 -10 c0 -5 -4
-10 -10 -10 -5 0 -10 5 -10 10 0 6 5 10 10 10 6 0 10 -4 10 -10z m85 -10 c3
-5 1 -10 -4 -10 -6 0 -11 5 -11 10 0 6 2 10 4 10 3 0 8 -4 11 -10z m-63 -30
l22 -20 -24 0 c-13 0 -20 3 -17 7 4 3 2 12 -4 20 -17 20 -1 16 23 -7z m78 0
c0 -5 -7 -10 -15 -10 -8 0 -15 5 -15 10 0 6 7 10 15 10 8 0 15 -4 15 -10z
m2980 0 c0 -5 -4 -10 -10 -10 -5 0 -10 5 -10 10 0 6 5 10 10 10 6 0 10 -4 10
-10z m-2980 -29 c-26 -15 -80 -23 -80 -12 0 10 27 17 70 19 19 1 21 -1 10 -7z
m2996 -12 c32 -19 45 -39 26 -39 -11 0 -79 59 -68 60 5 0 24 -9 42 -21z
m-2976 -9 c0 -5 -7 -10 -16 -10 -8 0 -12 5 -9 10 3 6 10 10 16 10 5 0 9 -4 9
-10z m2977 -27 c20 -16 20 -20 7 -37 -7 -11 -14 -16 -14 -11 0 5 -6 0 -14 -11
-10 -12 -11 -23 -5 -31 7 -7 6 -14 -1 -18 -5 -3 -13 1 -16 9 -3 9 -10 13 -15
10 -5 -3 -13 5 -17 17 -5 14 -11 18 -15 12 -4 -6 7 -23 25 -37 18 -14 29 -28
25 -32 -4 -4 -17 2 -30 14 -13 12 -27 22 -33 22 -5 0 6 -13 25 -29 19 -15 30
-31 24 -34 -5 -3 -25 9 -43 28 -19 19 -29 35 -23 35 6 0 14 11 17 25 4 14 13
25 21 25 8 0 15 4 15 9 0 15 32 22 47 10 7 -7 16 -9 19 -7 3 3 -9 16 -25 28
-17 12 -31 26 -31 31 0 11 22 0 57 -28z m-3003 12 c10 -8 23 -12 27 -9 5 3 6
-2 3 -11 -4 -9 -3 -15 2 -14 21 4 28 -2 14 -11 -13 -8 -12 -10 3 -10 10 0 15
-5 12 -11 -4 -6 -13 -8 -20 -5 -7 2 -23 -2 -34 -11 -12 -8 -25 -12 -29 -8 -3
3 0 10 8 15 13 9 8 14 -11 12 -4 -1 -3 14 1 33 7 32 6 34 -12 24 -23 -13 -39
-2 -18 11 20 13 32 12 54 -5z m2956 -15 c0 -5 -4 -10 -10 -10 -5 0 -10 5 -10
10 0 6 5 10 10 10 6 0 10 -4 10 -10z m-2990 -10 c0 -5 -5 -10 -11 -10 -5 0 -7
5 -4 10 3 6 8 10 11 10 2 0 4 -4 4 -10z m110 -59 c0 -10 -54 -31 -78 -31 -21
0 -6 13 31 27 40 15 47 15 47 4z m2920 -1 c0 -5 -5 -10 -11 -10 -5 0 -7 5 -4
10 3 6 8 10 11 10 2 0 4 -4 4 -10z m-2904 -29 c-3 -5 -16 -11 -28 -14 -13 -2
-31 -8 -40 -12 -11 -4 -18 -3 -18 3 0 11 44 30 73 31 10 1 16 -3 13 -8z m14
-22 c0 -5 -5 -7 -12 -3 -7 4 -8 3 -4 -4 4 -7 15 -12 24 -13 11 0 12 -3 5 -6
-7 -2 -13 -13 -13 -24 0 -10 -4 -19 -9 -19 -21 0 -41 13 -41 26 0 8 -4 14 -10
14 -5 0 -7 -8 -4 -17 5 -17 5 -17 -6 -1 -16 26 -13 32 23 45 41 15 47 15 47 2z
m2800 -47 c0 -11 -6 -24 -12 -30 -28 -23 -78 -16 -78 11 0 8 3 8 12 -1 15 -15
50 40 41 65 -5 14 -1 13 16 -4 11 -12 21 -31 21 -41z m30 -3 c0 -5 -4 -9 -10
-9 -5 0 -10 7 -10 16 0 8 5 12 10 9 6 -3 10 -10 10 -16z m-2800 1 c0 -5 -4
-10 -10 -10 -5 0 -10 5 -10 10 0 6 5 10 10 10 6 0 10 -4 10 -10z m8 -62 c-36
-19 -58 -23 -58 -10 0 4 16 14 36 21 19 7 34 15 31 17 -2 2 -21 -3 -42 -11
-20 -9 -38 -15 -39 -13 -1 2 -8 11 -15 21 -12 15 -11 17 3 17 10 0 14 -5 10
-11 -7 -12 26 -5 56 12 9 5 22 2 33 -9 17 -15 16 -17 -15 -34z m2701 -9 c13
-17 21 -33 17 -36 -3 -4 -7 -4 -8 -2 -2 2 -16 19 -32 37 -19 20 -25 32 -15 31
8 0 25 -14 38 -30z m56 21 c3 -5 1 -10 -4 -10 -6 0 -11 5 -11 10 0 6 2 10 4
10 3 0 8 -4 11 -10z m-25 -15 c20 -24 6 -28 -15 -5 -10 11 -13 20 -8 20 6 0
16 -7 23 -15z m-2693 -10 c-4 -8 -1 -17 4 -21 6 -3 9 -17 6 -30 -4 -24 8 -34
15 -13 2 6 12 10 22 8 14 -3 8 -10 -23 -28 -43 -23 -63 -23 -43 2 8 10 6 16
-9 25 -11 7 -19 23 -19 38 0 21 3 24 21 19 15 -5 19 -4 15 4 -4 6 -2 11 4 11
7 0 10 -7 7 -15z m2630 -2 c4 -10 15 -25 26 -33 18 -15 18 -16 -5 -35 -18 -16
-20 -16 -9 -2 8 9 11 20 7 24 -10 10 -18 -4 -18 -32 0 -14 -4 -25 -9 -25 -5 0
-9 5 -9 10 0 6 -5 10 -12 10 -9 0 -9 -3 0 -12 15 -15 16 -28 2 -28 -6 0 -13 8
-17 18 -3 9 -15 25 -27 35 l-21 19 23 -5 c22 -5 27 5 23 41 -1 6 3 12 9 12 5
0 10 -4 10 -10 0 -5 5 -10 12 -10 9 0 9 3 0 12 -15 15 -16 28 -2 28 6 0 14 -8
17 -17z m-2690 -30 c-3 -3 -11 -2 -17 2 -9 6 -9 10 1 16 14 8 27 -7 16 -18z
m97 -13 c-6 -5 -24 21 -24 34 0 6 6 1 14 -10 8 -10 12 -21 10 -24z m43 -45 c8
-9 12 -19 9 -23 -4 -3 -11 -1 -15 7 -7 10 -14 10 -39 -3 -35 -18 -42 -19 -42
-8 0 7 52 38 68 41 2 1 10 -6 19 -14z m2513 -58 c-1 -6 -14 4 -30 23 -39 45
-38 65 0 22 17 -18 30 -38 30 -45z m-20 -20 c-1 -7 -6 -5 -14 5 -12 16 -14 16
-24 -7 -6 -14 -16 -25 -22 -25 -7 0 -9 -8 -5 -21 5 -14 3 -20 -5 -17 -6 2 -11
7 -10 12 1 5 -2 12 -7 15 -4 3 -14 14 -21 23 -12 15 -11 20 3 35 17 16 17 16
10 -7 -7 -24 -7 -24 8 -5 8 11 13 23 11 27 -3 4 1 14 8 23 11 12 17 10 41 -15
15 -17 27 -36 27 -43z m-2485 39 c11 -8 25 -12 32 -9 7 3 13 0 13 -6 0 -6 -4
-11 -10 -11 -5 0 -10 -7 -10 -15 0 -8 -5 -15 -11 -15 -20 0 -49 21 -49 36 0
11 -6 13 -20 9 -11 -3 -20 -2 -20 4 0 5 10 12 23 14 12 2 25 5 28 6 3 0 14 -5
24 -13z m-45 -36 c0 -5 -2 -10 -4 -10 -3 0 -8 5 -11 10 -3 6 -1 10 4 10 6 0
11 -4 11 -10z m110 4 c0 -4 -8 -13 -17 -20 -10 -7 -13 -14 -6 -14 6 0 15 5 18
10 7 12 25 13 25 3 0 -12 -71 -55 -78 -49 -3 4 3 13 14 21 10 8 15 15 11 15
-11 0 12 40 23 40 6 0 10 -3 10 -6z m-60 -48 c-5 -5 -15 -2 -24 7 -23 22 -20
27 8 14 15 -7 21 -16 16 -21z m2379 -6 c27 -48 11 -54 -18 -6 -23 36 -25 46
-13 46 5 0 18 -18 31 -40z m-2271 3 c16 -16 16 -16 -1 -10 -10 4 -23 7 -28 7
-6 0 -7 5 -4 10 9 14 14 13 33 -7z m2251 -23 c12 -22 17 -40 11 -40 -6 0 -14
8 -17 18 -4 9 -13 23 -20 30 -15 15 -17 32 -5 32 5 0 18 -18 31 -40z m81 30
c0 -5 -5 -10 -11 -10 -5 0 -7 5 -4 10 3 6 8 10 11 10 2 0 4 -4 4 -10z m-120
-20 c0 -5 -4 -10 -10 -10 -5 0 -10 5 -10 10 0 6 5 10 10 10 6 0 10 -4 10 -10z
m-2278 -22 c-6 -6 -15 -8 -19 -4 -4 4 -1 11 7 16 19 12 27 3 12 -12z m72 0 c9
-12 16 -26 16 -30 0 -11 -48 -10 -55 2 -3 5 -12 7 -20 3 -8 -3 -15 0 -15 6 0
6 5 11 10 11 6 0 10 7 10 15 0 23 37 18 54 -7z m41 -28 c-3 -5 0 -7 9 -4 8 3
26 -3 40 -13 25 -18 37 -41 14 -26 -7 4 -22 6 -33 4 -17 -3 -18 -1 -5 15 14
16 13 16 -6 6 -11 -6 -26 -18 -34 -26 -16 -20 -34 -21 -27 -2 4 10 1 13 -9 9
-7 -3 -14 0 -14 6 0 7 12 11 28 9 28 -3 29 0 17 42 -7 23 -7 23 9 7 10 -9 15
-21 11 -27z m2180 8 c-3 -13 -7 -28 -7 -34 -2 -15 -58 -4 -58 11 0 20 29 45
52 45 16 0 19 -4 13 -22z m-66 -42 c23 -37 26 -46 11 -46 -10 0 -40 52 -40 70
0 17 8 11 29 -24z m86 24 c3 -5 1 -10 -4 -10 -6 0 -11 5 -11 10 0 6 2 10 4 10
3 0 8 -4 11 -10z m-95 -78 c0 -7 -4 -10 -10 -7 -5 3 -10 0 -10 -7 0 -7 -9 -19
-20 -26 -12 -7 -20 -8 -20 -2 0 5 3 10 8 10 4 0 13 9 20 20 10 17 10 26 -2 49
-9 16 -12 31 -9 35 8 7 42 -51 43 -72z m-45 28 c8 -37 -8 -60 -41 -60 -30 0
-30 14 -2 42 13 13 22 29 20 35 -2 7 1 13 7 13 5 0 12 -14 16 -30z m-1977 -18
c13 -20 13 -22 -3 -28 -10 -4 -26 -2 -36 4 -10 7 -25 9 -34 6 -8 -3 -15 -1
-15 5 0 6 7 11 15 11 8 0 15 5 15 10 0 14 -13 13 -28 -2 -6 -6 -15 -8 -19 -4
-5 4 0 13 10 21 24 17 76 5 95 -23z m2072 28 c0 -5 -4 -10 -10 -10 -5 0 -10 5
-10 10 0 6 5 10 10 10 6 0 10 -4 10 -10z m-2047 -20 c7 0 19 -5 27 -10 12 -8
10 -14 -15 -40 -26 -27 -64 -43 -50 -21 3 5 0 11 -7 14 -7 2 -5 3 4 2 9 -2 27
9 40 23 13 14 17 22 9 17 -13 -8 -31 10 -30 30 0 6 3 4 6 -2 2 -7 10 -13 16
-13z m1890 -7 c-17 -6 -16 -33 2 -57 17 -22 19 -36 6 -36 -5 0 -16 19 -25 41
-16 39 -16 42 1 54 10 7 20 11 23 8 3 -3 -1 -8 -7 -10z m-1833 -33 c0 -5 -6
-13 -12 -17 -16 -10 -42 -43 -35 -43 3 0 19 14 35 31 19 20 32 27 36 20 4 -6
1 -11 -6 -11 -7 0 -2 -7 10 -16 30 -20 28 -44 -2 -44 -14 0 -27 4 -30 9 -3 5
-14 7 -24 5 -9 -2 -24 0 -32 5 -12 8 -10 15 15 41 29 30 45 38 45 20z m1810
-30 c17 -52 6 -63 -14 -15 -18 42 -20 55 -8 55 5 0 15 -18 22 -40z m-37 16 c4
-9 -2 -13 -19 -13 -23 0 -23 1 -7 13 22 17 20 17 26 0z m97 -16 c0 -5 -4 -10
-10 -10 -5 0 -10 5 -10 10 0 6 5 10 10 10 6 0 10 -4 10 -10z m-1800 -10 c0 -5
-5 -10 -11 -10 -5 0 -7 5 -4 10 3 6 8 10 11 10 2 0 4 -4 4 -10z m1678 -3 c20
3 31 -2 40 -17 7 -12 10 -25 6 -28 -4 -4 -9 -1 -11 6 -6 15 -23 6 -19 -11 1
-7 1 -9 -1 -4 -8 14 -25 7 -19 -8 3 -8 1 -15 -3 -15 -5 0 -12 7 -15 16 -4 9
-13 14 -22 10 -13 -5 -13 -3 0 15 8 12 13 26 12 33 -2 6 -1 8 1 5 2 -3 16 -4
31 -2z m-1657 -25 c-5 -9 -19 -26 -31 -37 -16 -15 -23 -16 -29 -6 -5 7 -12 13
-17 13 -18 1 -34 10 -34 20 0 7 4 7 13 1 29 -23 48 -22 69 2 25 29 43 33 29 7z
m1609 2 c0 -8 -4 -12 -10 -9 -5 3 -10 10 -10 16 0 5 5 9 10 9 6 0 10 -7 10
-16z m-1588 -21 c-6 -10 -20 -27 -31 -37 -32 -29 -27 2 6 36 29 30 41 31 25 1z
m1576 -25 c6 -21 7 -38 2 -38 -9 0 -30 55 -30 78 0 26 17 1 28 -40z m-34 16
c4 -10 1 -14 -6 -12 -15 5 -23 28 -10 28 5 0 13 -7 16 -16z m-1488 -3 c-3 -5
1 -14 9 -21 12 -10 18 -10 31 1 14 12 16 11 13 -5 -2 -11 -12 -20 -22 -22 -10
-1 -26 -9 -35 -17 -15 -14 -19 -14 -37 0 -19 15 -19 15 5 8 l25 -7 -22 17
c-31 22 -29 43 5 48 15 2 28 5 30 6 2 0 1 -3 -2 -8z m34 -11 c0 -5 -4 -10 -10
-10 -5 0 -10 5 -10 10 0 6 5 10 10 10 6 0 10 -4 10 -10z m1454 -21 c11 -10 16
-22 12 -26 -5 -4 -11 -2 -13 5 -6 15 -23 6 -19 -11 1 -7 1 -9 -1 -4 -8 14 -25
7 -19 -8 7 -20 0 -19 -24 5 -20 20 -18 50 4 50 6 0 4 5 -4 10 -11 8 -7 9 15 4
17 -3 39 -15 49 -25z m66 5 c0 -8 -4 -12 -10 -9 -5 3 -10 13 -10 21 0 8 5 12
10 9 6 -3 10 -13 10 -21z m-153 -6 c-3 -8 -6 -5 -6 6 -1 11 2 17 5 13 3 -3 4
-12 1 -19z m-1466 -11 c-13 -13 -26 -3 -16 12 3 6 11 8 17 5 6 -4 6 -10 -1
-17z m128 -24 c-17 -27 -18 -34 -6 -24 15 12 17 11 17 -3 0 -9 5 -16 10 -16 6
0 10 -4 10 -9 0 -8 -52 12 -69 25 -2 2 9 20 24 39 35 46 44 38 14 -12z m1326
-5 c5 -25 4 -38 -4 -38 -6 0 -11 6 -11 14 0 7 -3 29 -6 47 -5 24 -3 31 4 24 6
-5 14 -27 17 -47z m-1279 24 c-2 -4 9 -15 25 -24 16 -10 29 -13 29 -8 0 4 -6
11 -12 14 -7 2 -4 4 7 2 11 -1 29 -7 39 -13 19 -10 18 -12 -4 -49 -13 -20 -26
-32 -28 -25 -2 6 4 23 13 37 18 29 15 43 -5 19 -7 -8 -18 -15 -26 -15 -7 0
-18 -8 -23 -17 -9 -16 -11 -16 -11 2 0 3 -10 15 -22 27 -14 14 -18 23 -10 26
7 2 10 8 6 13 -7 12 5 31 17 23 5 -3 7 -9 5 -12z m1253 -57 c0 -21 -2 -26 -8
-16 -5 8 -7 20 -4 27 2 7 0 21 -6 32 -6 11 -7 23 -3 26 8 9 20 -28 21 -69z
m-1339 35 c-6 -11 -15 -20 -20 -20 -16 0 -11 18 8 29 24 14 24 14 12 -9z
m1242 -12 c-7 -7 -12 -8 -12 -2 0 14 12 26 19 19 2 -3 -1 -11 -7 -17z m74 0
c10 -16 -17 -38 -47 -38 -31 0 -41 26 -14 36 8 4 13 9 10 14 -2 4 7 5 20 2 14
-2 28 -9 31 -14z m-86 -51 c0 -23 -4 -36 -10 -32 -5 3 -10 27 -10 53 0 34 3
43 10 32 5 -8 10 -32 10 -53z m170 42 c0 -5 -4 -9 -10 -9 -5 0 -10 7 -10 16 0
8 5 12 10 9 6 -3 10 -10 10 -16z m-1185 -10 c-10 -15 -25 -10 -19 6 4 8 10 12
15 9 5 -3 7 -10 4 -15z m987 -25 c2 -25 0 -48 -4 -50 -5 -3 -8 -2 -9 3 0 4 -2
27 -5 51 -4 25 -2 42 4 42 6 0 12 -21 14 -46z m-32 26 c0 -5 -4 -10 -10 -10
-5 0 -10 5 -10 10 0 6 5 10 10 10 6 0 10 -4 10 -10z m-909 -20 c29 -16 24 -40
-10 -40 -31 0 -57 22 -46 40 8 13 31 13 56 0z m39 0 c0 -5 -4 -10 -10 -10 -5
0 -10 5 -10 10 0 6 5 10 10 10 6 0 10 -4 10 -10z m788 -35 c0 -25 -4 -47 -9
-51 -5 -3 -9 17 -9 45 0 28 4 51 9 51 5 0 9 -20 9 -45z m81 29 c9 -8 9 -54 0
-54 -5 0 -9 4 -9 9 0 5 -9 7 -19 4 -11 -3 -27 -1 -36 4 -15 9 -15 11 -1 26 12
11 13 17 3 21 -6 2 4 2 23 -1 19 -3 37 -7 39 -9z m-1039 -9 c-7 -9 -15 -13
-17 -11 -7 7 7 26 19 26 6 0 6 -6 -2 -15z m56 -21 c-3 -8 -10 -13 -16 -9 -6 4
-5 13 3 26 13 21 23 8 13 -17z m126 -4 c-16 -38 -32 -52 -32 -30 0 18 30 70
40 70 4 0 1 -18 -8 -40z m36 18 c-16 -30 -21 -61 -8 -53 6 3 18 -1 27 -11 16
-16 16 -16 -7 -9 -14 5 -31 8 -37 8 -17 0 -16 7 2 51 8 20 20 36 25 36 7 0 6
-9 -2 -22z m712 -23 c0 -25 -4 -45 -10 -45 -5 0 -10 20 -10 45 0 25 5 45 10
45 6 0 10 -20 10 -45z m260 41 c0 -3 -4 -8 -10 -11 -5 -3 -10 -1 -10 4 0 6 5
11 10 11 6 0 10 -2 10 -4z m-290 -16 c0 -5 -2 -10 -4 -10 -3 0 -8 5 -11 10 -3
6 -1 10 4 10 6 0 11 -4 11 -10z m230 -5 c0 -8 -4 -15 -10 -15 -5 0 -10 7 -10
15 0 8 5 15 10 15 6 0 10 -7 10 -15z m30 5 c0 -5 -4 -10 -10 -10 -5 0 -10 5
-10 10 0 6 5 10 10 10 6 0 10 -4 10 -10z m-850 -10 c0 -5 -4 -10 -10 -10 -5 0
-10 5 -10 10 0 6 5 10 10 10 6 0 10 -4 10 -10z m30 5 c0 -2 -7 -23 -16 -45
-22 -55 -36 -51 -17 5 8 25 19 45 24 45 5 0 9 -2 9 -5z m15 -42 c-7 -21 -18
-39 -24 -41 -6 -2 -4 14 5 42 9 25 19 44 24 41 4 -3 2 -22 -5 -42z m426 -46
c-8 -8 -11 2 -11 34 0 59 14 73 18 19 2 -24 -2 -48 -7 -53z m36 72 c-4 -16 -3
-18 9 -8 7 6 11 15 9 19 -5 9 53 -5 63 -14 3 -3 -1 -13 -9 -22 -9 -11 -23 -14
-45 -11 -27 5 -31 3 -27 -14 3 -10 0 -19 -6 -19 -6 0 -11 19 -11 45 0 26 5 45
11 45 7 0 9 -9 6 -21z m-737 -5 c0 -8 -5 -12 -10 -9 -6 4 -8 11 -5 16 9 14 15
11 15 -7z m211 0 c10 -12 10 -17 0 -23 -7 -5 -12 -12 -11 -17 1 -5 -4 -10 -11
-13 -7 -2 -9 1 -5 8 4 6 1 11 -7 11 -17 0 -49 34 -40 43 12 13 61 7 74 -9z
m159 6 c0 -5 -4 -10 -10 -10 -5 0 -10 5 -10 10 0 6 5 10 10 10 6 0 10 -4 10
-10z m310 -3 c0 -23 -31 -57 -51 -57 -11 0 -18 -4 -14 -9 3 -5 1 -12 -5 -16
-5 -3 -10 2 -10 13 0 10 -3 22 -7 26 -12 11 -13 46 -2 46 5 0 8 -3 5 -8 -2 -4
13 -7 34 -7 26 0 36 3 33 12 -3 7 0 13 6 13 6 0 11 -6 11 -13z m-284 -13 c-3
-9 -6 -21 -6 -28 0 -7 -7 -21 -16 -32 -15 -18 -15 -18 -9 6 3 14 8 32 10 40 2
8 4 18 4 23 1 4 6 7 12 7 6 0 8 -7 5 -16z m22 -26 c-10 -45 -15 -55 -24 -46
-8 8 15 88 25 88 5 0 5 -19 -1 -42z m42 38 c0 -3 -4 -8 -10 -11 -5 -3 -10 -1
-10 4 0 6 5 11 10 11 6 0 10 -2 10 -4z m50 -6 c0 -5 -2 -10 -4 -10 -3 0 -8 5
-11 10 -3 6 -1 10 4 10 6 0 11 -4 11 -10z m30 -11 c0 -11 -4 -17 -10 -14 -5 3
-10 13 -10 21 0 8 5 14 10 14 6 0 10 -9 10 -21z m24 -21 c-7 -47 -11 -55 -20
-45 -9 9 6 87 17 87 5 0 6 -18 3 -42z m-504 22 c0 -5 -4 -10 -10 -10 -5 0 -10
5 -10 10 0 6 5 10 10 10 6 0 10 -4 10 -10z m297 -1 c11 -11 -5 -59 -20 -59 -5
0 -5 5 -2 10 3 6 0 10 -7 10 -8 0 -23 7 -34 15 -16 13 -17 16 -4 25 20 13 53
13 67 -1z m553 -10 c0 -5 -4 -9 -10 -9 -5 0 -10 7 -10 16 0 8 5 12 10 9 6 -3
10 -10 10 -16z m-396 -5 c18 -18 21 -54 5 -54 -6 0 -9 9 -6 19 3 13 1 18 -9
14 -7 -2 -10 -11 -7 -19 3 -8 0 -14 -6 -14 -6 0 -11 6 -12 13 0 10 -2 10 -6 0
-2 -7 -9 -13 -15 -13 -5 0 -8 6 -5 13 2 6 -3 18 -12 24 -14 11 -14 14 -1 23
22 15 56 12 74 -6z m302 -21 c-10 -10 -19 5 -10 18 6 11 8 11 12 0 2 -7 1 -15
-2 -18z m-530 -20 c-10 -10 -19 5 -10 18 6 11 8 11 12 0 2 -7 1 -15 -2 -18z
m304 7 c0 -11 -4 -20 -10 -20 -5 0 -10 9 -10 20 0 11 5 20 10 20 6 0 10 -9 10
-20z m90 5 c0 -8 -4 -15 -10 -15 -5 0 -10 7 -10 15 0 8 5 15 10 15 6 0 10 -7
10 -15z m90 11 c0 -3 -4 -8 -10 -11 -5 -3 -10 -1 -10 4 0 6 5 11 10 11 6 0 10
-2 10 -4z m-330 -21 c0 -8 -4 -15 -10 -15 -5 0 -10 7 -10 15 0 8 5 15 10 15 6
0 10 -7 10 -15z"/>
<path d="M2810 3959 c-135 -37 -137 -38 -150 -68 -10 -24 -9 -34 5 -62 61
-116 266 -255 423 -285 122 -24 207 -22 277 7 38 15 61 31 63 42 13 68 -46
157 -103 157 -24 0 -39 -7 -49 -22 -20 -29 -20 -41 2 -68 13 -16 26 -21 52
-18 l35 3 -37 17 c-46 20 -52 54 -13 64 29 7 50 -7 71 -47 23 -46 18 -76 -17
-95 -42 -21 -129 -28 -149 -12 -45 38 -62 96 -40 138 5 10 26 28 46 40 20 13
32 26 27 31 -17 17 -71 -12 -107 -55 -65 -79 -171 -84 -235 -11 -35 40 -37 54
-16 94 16 33 33 41 81 41 42 0 94 25 94 45 0 11 -7 12 -32 4 -18 -5 -45 -9
-59 -9 -14 0 -55 -15 -90 -34 -82 -44 -131 -53 -163 -33 -55 36 -33 78 49 92
43 7 85 29 85 45 0 12 -3 11 -50 -1z"/>
<path d="M2110 3917 c-180 -62 -366 -219 -386 -325 -5 -28 -2 -38 18 -58 23
-24 27 -24 119 -17 l94 9 -33 17 c-25 14 -45 16 -95 11 -77 -8 -86 3 -56 64
35 71 106 81 194 27 65 -38 111 -51 152 -40 l28 7 -24 19 c-15 12 -39 19 -66
19 -47 0 -95 30 -95 59 0 44 89 110 148 111 40 0 80 -27 92 -64 6 -18 19 -41
29 -50 18 -16 81 -34 81 -22 0 4 -18 24 -40 45 -44 42 -50 72 -23 111 52 74
141 92 193 40 56 -56 -24 -152 -90 -110 -21 13 -2 41 38 54 36 12 42 26 18 41
-12 7 -26 5 -54 -10 -31 -17 -37 -26 -40 -56 -3 -30 2 -41 25 -59 58 -45 142
-5 157 76 9 43 -9 74 -64 112 -29 19 -46 22 -129 22 -82 0 -110 -5 -191 -33z"/>
<path d="M2480 3694 c-60 -81 -240 -193 -379 -235 -41 -12 -118 -25 -175 -28
-93 -6 -97 -8 -55 -15 26 -4 72 -6 103 -4 31 1 56 2 56 1 0 -8 -62 -32 -99
-38 -36 -6 -41 -9 -27 -17 47 -27 -34 -136 -120 -162 -19 -6 -23 -1 -29 31
l-8 38 -12 -55 c-6 -30 -16 -64 -23 -75 -9 -17 -12 -8 -13 50 -2 107 -16 149
-18 53 -3 -195 -85 -403 -213 -544 -29 -31 -44 -52 -33 -47 11 6 45 37 74 68
48 50 53 53 47 28 -4 -15 -20 -47 -37 -71 -28 -42 -24 -46 13 -15 15 13 18 12
34 -12 20 -31 23 -125 5 -169 l-12 -29 -27 26 c-42 41 -44 33 -6 -24 53 -80
41 -89 -28 -22 -35 33 -74 65 -88 72 -15 8 -9 -2 18 -24 140 -121 244 -342
259 -550 7 -86 7 -88 15 -45 5 25 6 69 3 98 -4 28 -4 52 0 52 9 0 27 -51 35
-105 6 -42 9 -46 15 -27 15 46 91 11 139 -63 35 -53 33 -71 -6 -80 -32 -7 -32
-8 22 -19 30 -7 64 -17 75 -24 17 -9 7 -12 -55 -13 -107 -2 -147 -17 -48 -18
199 -3 414 -89 548 -221 43 -41 55 -49 42 -28 -9 17 -43 54 -75 84 -53 49 -55
52 -25 42 35 -12 88 -45 100 -63 5 -6 8 -5 8 4 0 8 -7 22 -16 32 -14 16 -14
19 12 36 33 21 127 24 162 4 l23 -12 -26 -30 c-34 -41 -32 -59 3 -27 28 26 83
58 101 58 5 0 -14 -24 -43 -53 -76 -75 -93 -116 -20 -46 33 31 81 71 107 89
123 82 299 139 437 141 70 1 73 2 35 11 -22 5 -71 8 -110 5 l-70 -4 42 19 c23
10 60 19 82 21 35 2 49 17 15 17 -21 0 -17 47 7 86 21 35 93 84 122 84 12 0
17 -9 17 -27 0 -53 17 -57 22 -6 3 26 12 64 21 83 l15 35 2 -90 c2 -121 17
-154 17 -39 1 201 108 449 245 570 40 34 40 35 9 18 -18 -10 -58 -46 -88 -78
-40 -43 -54 -53 -48 -35 12 38 34 78 56 100 13 13 15 19 5 19 -7 0 -19 -7 -26
-15 -19 -23 -30 -18 -46 20 -17 41 -18 100 -3 144 13 38 19 38 49 6 13 -14 31
-25 39 -25 14 1 14 2 -1 10 -19 12 -51 61 -68 105 -10 25 -3 21 52 -31 35 -34
74 -66 88 -73 17 -9 12 -2 -13 19 -143 121 -255 372 -258 575 -1 70 -2 76 -11
46 -5 -19 -8 -68 -6 -108 2 -61 1 -71 -10 -56 -6 9 -17 43 -24 75 -9 41 -15
54 -21 43 -24 -44 -125 22 -152 100 l-13 40 29 6 c46 10 44 16 -8 23 -26 4
-61 13 -78 21 -28 13 -26 13 55 15 123 3 158 18 45 19 -200 2 -407 85 -549
220 -26 25 -44 37 -38 26 6 -11 37 -46 70 -78 33 -31 58 -57 56 -57 -15 0 -83
35 -113 57 -33 26 -34 17 -2 -20 13 -16 13 -19 1 -28 -32 -20 -90 -31 -132
-25 -69 11 -76 19 -45 56 35 41 35 61 0 29 -45 -40 -59 -49 -93 -59 -31 -9
-31 -8 14 32 44 38 112 125 104 133 -1 2 -14 -12 -28 -31z m-33 -187 c-96 -16
-231 -58 -309 -97 -67 -34 -100 -54 -191 -120 -19 -14 -19 -13 -9 7 7 12 12
31 12 42 0 15 6 21 21 21 25 0 56 16 89 45 14 12 49 30 79 39 30 10 85 33 123
52 37 19 82 34 100 34 18 0 39 4 47 9 8 5 28 2 52 -8 l39 -16 -53 -8z m328 23
c28 -4 84 -23 125 -43 41 -19 95 -40 120 -47 24 -7 57 -23 73 -36 16 -13 39
-27 53 -30 15 -4 24 -13 24 -26 0 -10 7 -33 16 -50 18 -35 16 -34 -72 33 -110
83 -289 154 -438 174 l-48 7 33 18 c19 9 41 15 49 12 8 -3 38 -8 65 -12z m10
-68 c188 -53 329 -135 447 -260 302 -324 342 -801 97 -1163 -169 -251 -464
-408 -765 -409 -422 0 -795 286 -906 695 -32 119 -32 347 0 464 97 356 378
619 730 686 104 20 302 13 397 -13z m-941 -273 c-4 -7 -29 -41 -55 -76 -89
-117 -155 -283 -174 -436 l-7 -57 -19 38 c-15 29 -17 43 -9 66 5 16 10 42 10
58 0 16 15 62 34 101 19 40 40 95 47 122 7 28 23 61 35 75 12 14 29 40 38 58
9 17 24 32 34 32 9 1 28 7 42 15 31 18 33 18 24 4z m1479 -24 c26 -11 37 -23
42 -45 4 -16 19 -42 34 -58 14 -15 35 -54 45 -87 10 -33 33 -89 51 -125 39
-76 52 -162 31 -200 -14 -24 -14 -23 -21 25 -19 147 -101 347 -184 453 -23 29
-40 52 -37 52 2 0 19 -7 39 -15z m-1658 -925 c31 -86 81 -180 128 -242 50 -65
53 -72 29 -59 -11 6 -30 11 -41 11 -12 0 -21 7 -21 15 0 22 -37 92 -53 102 -8
4 -21 33 -31 63 -10 30 -33 86 -52 123 -19 38 -34 79 -34 91 0 13 -5 37 -11
54 -9 25 -8 36 5 54 9 12 16 32 17 43 1 11 9 -25 19 -80 10 -55 30 -134 45
-175z m1872 198 c11 -13 12 -21 3 -37 -6 -11 -11 -38 -12 -58 0 -21 -13 -63
-29 -94 -15 -31 -38 -87 -50 -125 -12 -38 -29 -78 -39 -89 -10 -11 -25 -35
-34 -52 -11 -21 -24 -33 -37 -33 -11 0 -29 -5 -40 -10 -10 -6 -19 -9 -19 -6 0
3 22 34 50 71 27 36 65 98 84 138 36 74 86 232 86 271 0 34 13 73 18 56 3 -8
11 -23 19 -32z m-1392 -733 c87 -43 199 -77 298 -90 l49 -7 -40 -19 c-32 -16
-45 -18 -61 -10 -11 6 -34 11 -51 11 -17 0 -64 15 -103 34 -40 19 -94 41 -122
48 -27 7 -65 25 -83 40 -18 15 -42 30 -55 33 -15 4 -28 22 -43 59 l-20 54 70
-54 c39 -30 112 -74 161 -99z m1023 90 c-9 -26 -18 -36 -40 -41 -16 -3 -44
-18 -61 -33 -18 -16 -61 -38 -97 -50 -36 -12 -89 -35 -119 -51 -30 -17 -67
-30 -82 -30 -15 0 -39 -4 -52 -9 -19 -7 -34 -5 -61 8 l-36 19 76 11 c151 22
374 118 449 191 28 29 35 25 23 -15z"/>
<path d="M2390 3445 c-353 -75 -618 -329 -702 -672 -30 -122 -29 -314 1 -428
88 -331 343 -580 677 -661 102 -25 304 -22 409 5 89 23 220 83 293 133 69 47
168 144 217 213 168 236 214 525 129 798 -56 177 -149 313 -292 428 -83 67
-244 149 -342 174 -89 23 -305 29 -390 10z m96 -58 c3 -34 2 -35 -39 -39 -23
-3 -54 0 -69 5 -30 10 -37 34 -13 43 8 4 13 10 10 14 -3 5 8 2 25 -6 34 -17
38 -29 14 -38 -9 -4 -14 -9 -11 -13 9 -8 37 16 37 33 0 7 -9 16 -20 19 -28 9
-25 20 5 23 22 2 25 -2 25 -33 0 -19 3 -35 8 -35 4 0 6 19 4 43 -3 33 -1 39 8
30 7 -6 14 -27 16 -46z m170 41 c3 -5 0 -8 -6 -8 -6 0 -17 -6 -24 -12 -11 -11
-11 -17 1 -35 10 -15 11 -23 4 -23 -6 0 -14 7 -17 15 -4 8 -10 15 -16 15 -5 0
-6 -4 -3 -10 3 -5 2 -10 -4 -10 -15 0 -23 18 -11 25 21 13 8 33 -27 43 -35 10
-33 11 30 9 38 -1 71 -5 73 -9z m31 -5 c-4 -3 2 -12 13 -20 25 -17 25 -29 3
-36 -10 -2 -27 -8 -38 -12 -11 -5 -17 -4 -12 0 4 5 -1 17 -10 27 -16 18 -16
19 5 25 12 3 22 9 22 14 0 5 5 9 12 9 6 0 8 -3 5 -7z m49 -15 c-6 10 0 11 26
7 18 -3 38 -11 43 -17 7 -8 6 -9 -2 -4 -7 4 -13 2 -13 -3 0 -6 11 -11 25 -11
30 0 55 -37 31 -46 -26 -10 -50 0 -63 26 -7 14 -13 21 -13 16 0 -5 -8 -2 -17
5 -9 8 -4 -4 12 -25 29 -39 29 -39 5 -26 -14 8 -29 15 -35 15 -5 0 -9 10 -8
22 1 11 -4 27 -12 33 -8 7 -15 17 -15 23 0 5 10 2 22 -9 12 -10 18 -13 14 -6z
m-166 -3 c10 -12 9 -16 -4 -21 -9 -3 -14 -9 -11 -14 2 -4 -7 -5 -22 -2 -19 4
-24 2 -18 -8 5 -9 4 -11 -4 -6 -6 4 -9 12 -6 17 4 5 1 9 -4 9 -15 0 -14 27 2
33 24 10 55 7 67 -8z m-227 -32 c-5 -31 -4 -35 10 -30 10 4 17 2 17 -3 0 -6
-9 -11 -20 -11 -28 -2 -32 -3 -58 -18 l-23 -12 17 26 c17 26 17 28 0 41 -17
12 -14 40 4 29 5 -3 11 -1 15 5 3 5 15 10 25 10 16 0 18 -5 13 -37z m603 -25
c3 -4 -5 -10 -20 -14 -29 -7 -31 -15 -15 -47 10 -18 5 -17 -22 8 -18 17 -27
21 -19 11 14 -18 14 -19 -9 -7 -19 10 -21 15 -10 22 15 9 21 49 8 49 -5 0 -9
4 -9 9 0 9 83 -18 96 -31z m-741 -8 c-17 -33 -19 -44 -6 -35 5 3 12 1 16 -4 3
-6 13 -7 23 -4 9 3 14 3 10 -1 -3 -4 -12 -8 -20 -10 -7 -1 -20 -6 -28 -11 -8
-6 -25 -15 -37 -22 -20 -10 -21 -10 -11 7 7 10 15 17 19 14 4 -2 5 5 2 16 -3
10 -8 19 -12 18 -23 -3 -41 4 -36 13 6 9 50 31 67 33 3 1 10 4 14 9 15 14 14
7 -1 -23z m85 11 c0 -18 -32 -41 -56 -41 -26 0 -32 18 -12 38 14 14 68 16 68
3z m420 -1 c0 -5 -2 -10 -4 -10 -3 0 -8 5 -11 10 -3 6 -1 10 4 10 6 0 11 -4
11 -10z m1 -24 c326 -69 567 -322 619 -649 25 -150 0 -307 -69 -452 -78 -164
-194 -281 -356 -361 -129 -63 -196 -79 -345 -79 -145 0 -213 15 -335 74 -182
87 -316 229 -389 414 -181 456 98 961 585 1056 69 14 218 12 290 -3z m368 -57
c13 -11 19 -19 14 -19 -5 0 -13 3 -17 8 -4 4 -17 7 -29 7 -13 1 -21 6 -19 15
2 10 0 11 -10 3 -10 -8 -17 -3 -29 22 l-16 33 41 -25 c23 -14 52 -34 65 -44z
m-107 44 c8 -10 18 -26 21 -36 4 -9 10 -16 14 -15 4 2 10 -1 12 -7 2 -5 8 -21
13 -35 l9 -25 -26 25 c-15 14 -30 24 -33 23 -4 0 -14 3 -22 9 -12 8 -12 9 2 4
10 -3 20 -1 23 4 4 6 -5 10 -18 10 -13 0 -32 9 -43 21 -16 17 -16 22 -4 29 22
14 35 12 52 -7z m-877 -13 c-4 -7 2 -9 19 -4 36 9 49 -2 34 -29 -7 -12 -11
-25 -10 -28 0 -4 -11 -12 -27 -19 -15 -6 -47 -31 -71 -55 -24 -24 -48 -41 -53
-38 -6 3 -7 2 -4 -4 4 -6 -5 -21 -19 -34 l-26 -24 4 34 c3 30 7 35 33 38 35 5
65 29 65 52 0 10 -5 7 -13 -9 -16 -32 -57 -40 -57 -12 0 28 24 44 58 41 16 -2
36 2 43 8 8 6 23 13 34 16 17 4 17 5 -4 6 -20 1 -22 5 -17 29 5 22 4 24 -5 9
-6 -10 -8 -24 -5 -32 7 -18 -16 -36 -33 -26 -29 18 -96 -25 -85 -54 6 -14 -23
-40 -55 -50 l-23 -7 23 31 c15 20 29 29 38 26 9 -3 12 -3 8 1 -8 8 30 64 44
64 5 0 19 9 31 19 69 59 84 69 73 51z m999 -66 c9 -8 16 -21 16 -29 0 -15 -56
-26 -58 -11 0 6 -4 21 -7 34 -6 18 -3 22 13 22 11 0 28 -7 36 -16z m63 -48
c-1 -6 5 -10 14 -8 9 1 19 -4 22 -11 4 -10 -3 -12 -31 -8 -29 5 -37 11 -37 28
0 12 -4 25 -8 29 -20 20 -4 24 18 4 13 -12 23 -28 22 -34z m-35 -23 c10 -9 18
-24 18 -33 0 -9 11 -27 25 -40 14 -13 25 -19 25 -14 0 5 -9 15 -20 22 -25 16
-27 52 -2 52 38 0 57 -51 30 -79 -11 -10 -10 -11 5 -6 9 4 17 11 17 17 0 5 6
6 13 2 9 -6 9 -4 1 7 -6 8 -14 25 -17 39 -5 22 -4 23 6 6 7 -10 23 -32 35 -47
13 -16 20 -29 16 -29 -5 0 2 -7 14 -16 12 -8 22 -21 21 -27 0 -8 -2 -8 -6 1
-7 17 -63 46 -63 32 0 -6 -4 -9 -9 -6 -13 9 0 -47 16 -66 8 -9 29 -21 45 -27
26 -9 29 -9 18 4 -9 11 -9 15 -1 15 7 0 9 5 6 11 -5 6 -11 5 -18 -6 -11 -14
-14 -14 -35 0 -23 17 -31 65 -9 65 30 -1 116 -100 86 -100 -6 0 -1 -9 12 -20
l24 -20 -29 12 c-24 10 -30 10 -41 -5 -13 -17 -31 -24 -21 -8 4 5 1 11 -4 13
-6 2 -12 10 -13 19 -2 9 -15 31 -30 48 -15 18 -27 37 -27 43 0 5 -32 43 -72
84 -51 53 -66 74 -53 74 10 0 27 -7 37 -17z m-1195 -88 c-2 -19 -11 -43 -20
-53 -9 -10 -17 -23 -17 -29 0 -6 -8 -17 -17 -24 -10 -7 -15 -9 -11 -5 11 13
-11 36 -33 36 -10 0 -21 -5 -24 -10 -4 -7 2 -9 19 -4 23 5 26 3 26 -19 0 -15
-9 -32 -22 -41 -21 -15 -23 -14 -33 4 -6 12 -13 19 -16 18 -2 -2 1 2 8 8 16
13 17 28 3 19 -14 -9 46 89 63 104 11 8 13 4 9 -19 -4 -27 -1 -30 21 -30 14 0
29 5 32 10 4 7 -2 9 -19 4 -22 -5 -26 -3 -26 14 0 24 25 52 46 52 11 0 14 -9
11 -35z m-137 -164 c8 -16 6 -23 -12 -35 -12 -8 -26 -12 -31 -9 -6 3 -7 1 -4
-4 4 -6 0 -16 -8 -23 -13 -11 -14 -10 -9 6 4 10 16 30 28 43 12 13 15 21 9 17
-9 -5 -11 -2 -7 8 8 22 21 20 34 -3z m40 -29 c-11 -22 -20 -47 -21 -54 0 -7
-5 0 -11 15 -9 25 -7 32 18 58 15 16 29 27 31 26 1 -2 -6 -22 -17 -45z m1520
14 c18 -23 9 -62 -15 -58 -18 2 -19 2 -2 -8 23 -15 37 -4 37 28 l0 27 15 -29
c9 -16 18 -46 21 -65 5 -29 3 -34 -7 -23 -21 20 -50 14 -57 -10 -5 -21 -6 -21
-13 7 -5 18 -4 32 2 36 7 4 6 8 -3 11 -19 8 -23 98 -4 98 7 0 19 -7 26 -14z
m-1566 -45 c10 -16 7 -84 -5 -111 -2 -6 -6 -21 -8 -35 -1 -5 -7 0 -14 12 -12
21 -14 22 -35 7 -12 -8 -22 -22 -22 -31 0 -11 5 -9 19 8 l18 23 12 -23 c10
-18 9 -27 -4 -47 -8 -13 -17 -24 -19 -24 -3 0 -12 14 -21 32 -13 27 -14 40 -4
88 13 57 34 98 25 46 -3 -16 -2 -26 1 -22 3 3 12 1 18 -4 8 -7 18 -3 31 13 10
12 12 16 4 10 -24 -21 -40 -15 -40 15 0 38 30 67 44 43z m1614 -115 c5 -38
-15 -57 -33 -33 -10 14 -14 15 -19 5 -3 -7 -3 1 1 17 8 41 12 47 31 43 10 -2
18 -15 20 -32z m28 -41 c2 -21 -3 -25 -26 -25 -16 0 -31 -4 -34 -9 -4 -5 12
-7 36 -4 29 4 39 3 34 -5 -4 -7 -18 -12 -31 -12 -13 0 -27 -5 -30 -10 -10 -17
-20 -4 -23 29 -2 29 0 31 23 25 21 -5 27 -2 32 15 7 29 18 27 19 -4z m-1729
-73 c-8 -10 -4 -10 19 -2 15 6 35 17 44 23 13 10 13 10 2 -5 -8 -9 -11 -22 -7
-28 4 -6 -7 -15 -25 -22 -17 -6 -36 -20 -41 -32 -6 -15 -8 -5 -7 39 1 67 8 88
18 59 4 -10 3 -25 -3 -32z m1743 -3 c0 -6 -6 -9 -13 -6 -10 4 -13 -2 -9 -19 2
-13 8 -21 13 -19 15 10 4 -46 -11 -56 -13 -9 -12 -10 3 -5 17 5 23 -5 10 -18
-4 -4 -6 -24 -4 -45 1 -22 -2 -42 -8 -45 -6 -4 -8 -12 -5 -20 5 -13 -44 -41
-54 -31 -3 2 -12 -1 -20 -8 -13 -10 -14 -7 -8 28 4 22 10 44 13 49 4 5 7 35 9
67 1 31 8 76 14 98 10 36 14 41 40 41 17 0 30 -5 30 -11z m-1680 -50 c0 -6 -5
-7 -11 -3 -8 4 -9 0 -4 -15 8 -27 -2 -61 -20 -61 -23 0 -34 57 -15 76 13 13
50 15 50 3z m5 -81 c0 -13 -4 -28 -8 -35 -4 -6 -1 -13 5 -16 7 -2 10 -7 7 -11
-4 -4 -13 0 -21 8 -17 16 -38 4 -38 -23 0 -12 3 -11 13 3 12 16 14 16 26 2 7
-9 17 -13 22 -10 12 7 11 0 -3 -31 -15 -32 -31 -32 -54 3 -23 34 -28 62 -11
62 8 0 8 3 1 8 -15 10 -25 40 -15 47 5 2 14 -2 21 -10 13 -16 40 -9 40 11 0 8
4 14 8 14 4 0 8 -10 7 -22z m-1 -152 c8 3 12 12 9 20 -3 8 0 14 6 14 10 0 15
-22 14 -57 -1 -7 3 -13 8 -13 5 0 9 -4 9 -10 0 -5 -7 -7 -15 -4 -8 4 -15 12
-15 19 0 7 -11 15 -25 17 -13 3 -22 1 -19 -3 3 -5 13 -9 22 -9 11 0 13 -3 5
-11 -15 -15 -53 6 -53 31 0 10 -3 26 -6 35 -4 11 3 7 19 -9 15 -15 32 -23 41
-20z m1641 -3 c-2 -16 -8 -39 -13 -53 -5 -14 -10 -29 -12 -35 -1 -5 -9 -18
-17 -27 -9 -10 -13 -18 -9 -18 4 0 4 -5 0 -12 -5 -8 -11 -5 -20 7 -11 15 -11
22 -1 34 11 14 10 14 -5 2 -18 -13 -12 -41 12 -56 6 -4 8 -11 4 -16 -3 -5 -9
-7 -14 -4 -4 3 -13 -2 -20 -10 -7 -8 -19 -15 -26 -15 -19 0 -17 40 3 62 16 18
16 18 -1 12 -17 -7 -17 -6 0 27 9 19 20 45 25 59 l7 25 1 -28 c1 -33 27 -46
47 -23 8 9 9 11 2 6 -22 -19 -38 -11 -38 19 0 50 39 65 53 21 2 -8 3 -3 1 12
-2 15 2 29 9 32 7 2 13 5 14 5 1 1 0 -11 -2 -26z m-1657 -79 c4 -28 -7 -30
-12 -2 -1 7 -5 19 -10 27 -6 9 -5 12 5 9 8 -2 16 -18 17 -34z m44 19 c10 -9
18 -27 18 -41 0 -21 -3 -23 -25 -18 -35 9 -31 0 5 -12 16 -6 29 -8 29 -4 -1 4
-1 18 0 32 2 23 3 23 18 -10 9 -19 16 -38 15 -41 -1 -4 7 -14 17 -23 23 -21
17 -78 -9 -74 -9 2 -18 -1 -19 -6 0 -5 10 -10 23 -11 14 0 22 4 19 9 -4 5 1 6
12 2 15 -5 16 -4 5 9 -7 9 -10 18 -7 21 6 6 59 -58 63 -78 2 -7 6 -23 10 -35
5 -19 2 -23 -14 -23 -23 0 -39 16 -44 45 -2 16 2 20 22 18 15 -1 18 0 7 3 -9
3 -15 10 -11 15 3 5 -6 4 -20 -2 -20 -10 -23 -15 -15 -26 6 -7 8 -13 3 -13 -4
0 -3 -5 4 -12 7 -7 12 -16 12 -21 0 -15 -80 85 -102 128 -12 22 -19 41 -17 41
2 1 -3 10 -13 20 -18 21 -21 33 -19 87 1 41 6 45 33 20z m1508 -145 c34 21 33
9 -1 -38 -31 -43 -32 -43 -41 -21 -6 19 -13 22 -34 17 -22 -6 -24 -5 -15 13 6
11 18 27 27 36 15 15 17 14 29 -2 12 -16 17 -16 35 -5z m-54 -79 c-5 -29 -4
-30 12 -18 18 14 -10 -21 -62 -78 -33 -36 -52 -44 -37 -14 6 10 8 21 4 24 -11
11 19 37 43 37 12 0 26 5 29 10 4 7 -2 9 -19 4 -23 -5 -26 -3 -26 19 0 26 22
46 49 47 10 0 12 -8 7 -31z m-68 -21 c-4 -28 -17 -50 -26 -44 -4 2 -16 0 -27
-5 -19 -7 -19 -8 3 -8 23 -1 32 -34 12 -46 -6 -4 -8 -10 -5 -15 3 -4 -16 -25
-42 -46 -26 -21 -44 -34 -40 -28 3 6 0 11 -7 11 -8 0 -12 -6 -9 -13 4 -11 -50
-49 -61 -42 -2 2 -12 -4 -22 -13 -28 -24 -54 -31 -47 -14 3 8 8 13 13 10 4 -2
5 6 3 19 -3 13 0 27 6 30 6 4 11 13 11 19 0 7 -5 4 -11 -5 -5 -10 -18 -18 -27
-18 -13 0 -12 4 8 19 13 11 27 18 31 15 3 -2 14 5 23 15 18 19 65 18 78 -3 5
-8 8 -7 8 2 0 7 -9 16 -20 20 -20 8 -20 8 4 31 14 13 32 21 40 18 12 -5 35 23
24 30 -3 2 74 83 79 83 2 0 2 -10 1 -22z m-1141 -87 c-12 -5 -54 37 -60 61 -4
14 5 9 31 -19 21 -21 33 -40 29 -42z m-65 20 c11 6 20 4 29 -8 8 -9 9 -14 3
-10 -16 9 -5 -44 14 -65 18 -22 60 -24 68 -4 3 8 1 23 -5 34 -9 16 -2 14 37
-11 31 -21 42 -33 32 -35 -8 -2 -19 -8 -24 -13 -14 -13 -16 -40 -4 -33 7 4 8
2 4 -4 -4 -7 -2 -12 4 -12 6 0 8 10 4 25 -5 21 -3 25 15 25 29 0 62 -35 54
-57 -7 -19 -5 -18 17 11 8 11 10 17 4 13 -6 -3 -11 0 -11 8 0 8 5 11 11 7 6
-3 16 -7 21 -8 6 -1 21 -7 35 -12 22 -9 23 -11 5 -11 -12 -1 -25 2 -30 7 -6 4
-7 3 -3 -2 10 -13 -2 -37 -16 -30 -6 3 -3 -1 7 -9 9 -8 17 -19 17 -26 0 -14
-80 25 -96 47 -6 8 -16 12 -22 8 -18 -11 -186 109 -177 125 3 4 0 11 -6 15 -8
5 -9 3 -4 -7 5 -8 -1 -5 -13 5 -26 23 -29 40 -4 27 10 -6 24 -6 34 0z m90 -48
c25 -22 23 -43 -5 -43 -28 0 -47 17 -47 42 0 23 27 23 52 1z m848 -116 c0 -21
-22 -37 -53 -37 -25 0 -28 3 -22 23 5 17 4 19 -4 7 -6 -8 -8 -22 -6 -30 6 -20
-5 -36 -32 -44 -21 -7 -22 -5 -17 23 5 24 3 31 -10 31 -9 0 -16 5 -16 10 0 6
6 10 14 10 8 0 21 3 29 6 12 4 15 0 11 -18 -3 -22 -3 -21 7 2 10 21 19 26 55
28 30 1 44 -2 44 -11z m-548 -14 c13 -2 31 -5 41 -5 23 1 22 -15 -3 -23 -11
-4 -18 -10 -15 -15 12 -19 -7 -38 -33 -34 -30 6 -67 25 -42 23 45 -4 59 20 27
48 -18 15 -19 15 -8 1 17 -22 6 -38 -25 -38 -17 0 -23 -4 -18 -12 4 -7 3 -8
-5 -4 -6 4 -9 11 -6 16 3 5 1 11 -5 15 -22 13 -9 34 23 37 17 2 35 2 39 0 5
-2 18 -6 30 -9z m408 -38 c0 -7 -8 -16 -17 -19 -15 -6 -15 -8 -3 -16 24 -15 6
-11 -29 6 -18 9 -35 22 -38 30 -8 21 -22 17 -16 -5 3 -11 11 -22 19 -25 8 -3
14 -10 14 -16 0 -14 -47 -12 -53 3 -4 8 -6 7 -6 -3 -1 -9 -10 -16 -21 -17 -18
-2 -17 1 6 22 26 24 25 45 -2 45 -8 0 -14 3 -14 8 0 4 21 8 46 10 30 2 43 -1
39 -7 -3 -7 0 -8 9 -5 9 3 14 10 11 15 -3 4 8 3 25 -2 16 -6 30 -17 30 -24z
m-276 17 c3 -5 19 -7 37 -4 22 3 30 1 25 -7 -4 -6 -11 -9 -16 -6 -10 6 -8 -15
4 -33 4 -7 18 -17 30 -22 17 -7 13 -9 -21 -9 -39 -1 -42 1 -53 34 -6 19 -19
39 -28 45 -16 9 -16 9 0 10 9 0 19 -4 22 -8z m-23 -20 l22 -19 -31 -15 c-26
-13 -32 -14 -36 -2 -3 8 -11 14 -17 14 -8 0 -8 -4 1 -15 8 -9 9 -15 2 -15 -16
0 -22 14 -15 38 4 18 15 26 44 31 4 0 17 -7 30 -17z m148 -1 c12 -8 12 -12 2
-25 -17 -20 -55 -21 -70 -2 -21 25 36 47 68 27z m236 -1 c-3 -5 -11 -10 -16
-10 -6 0 -7 5 -4 10 3 6 11 10 16 10 6 0 7 -4 4 -10z m-355 -48 c0 -4 -9 -8
-20 -8 -22 0 -27 12 -7 19 14 5 27 -1 27 -11z m230 8 c0 -5 -2 -10 -4 -10 -3
0 -8 5 -11 10 -3 6 -1 10 4 10 6 0 11 -4 11 -10z"/>
<path d="M2415 3280 c-262 -56 -469 -244 -557 -506 -20 -60 -23 -88 -22 -219
0 -135 3 -157 26 -222 83 -233 249 -396 484 -475 60 -20 88 -23 219 -22 135 0
157 3 222 26 233 83 396 249 475 484 20 60 23 87 22 219 0 136 -3 157 -27 224
-56 155 -147 277 -271 366 -137 96 -228 126 -401 131 -71 1 -148 -1 -170 -6z
m355 -40 c122 -41 200 -89 291 -180 71 -71 94 -101 133 -180 54 -110 76 -201
76 -320 0 -118 -22 -209 -74 -315 -121 -245 -362 -395 -635 -395 -197 0 -358
66 -499 203 -133 130 -202 285 -210 474 -6 141 13 231 75 356 38 75 62 108
133 178 71 71 103 95 181 133 126 62 194 77 344 72 89 -3 137 -10 185 -26z"/>
<path d="M2570 3212 c0 -5 -5 -46 -11 -91 -14 -103 -8 -128 36 -147 37 -15 71
-8 94 20 16 19 41 195 29 202 -11 7 -15 -8 -28 -100 -12 -90 -21 -106 -61
-106 -43 0 -62 26 -55 72 16 99 19 158 7 158 -6 0 -11 -4 -11 -8z"/>
<path d="M2388 3191 c-60 -15 -82 -41 -29 -33 28 4 28 3 51 -90 12 -51 26 -97
31 -102 21 -23 19 9 -6 98 -26 97 -26 116 0 116 16 0 29 17 18 23 -5 2 -34 -3
-65 -12z"/>
<path d="M2812 3039 c-34 -50 -62 -95 -62 -100 0 -20 19 -7 44 31 14 22 31 40
36 40 5 0 10 -32 12 -72 2 -47 7 -73 16 -76 10 -3 11 10 6 62 l-7 65 30 -11
c36 -14 57 -7 78 25 21 33 8 66 -42 100 -21 15 -41 27 -44 27 -3 0 -33 -41
-67 -91z m111 36 c50 -47 21 -100 -39 -69 -16 8 -33 19 -38 24 -8 8 29 70 42
70 4 0 20 -11 35 -25z"/>
<path d="M2174 3064 c3 -16 13 -69 21 -119 19 -110 23 -121 35 -109 5 5 5 28
1 52 -8 42 -8 43 33 71 l41 29 38 -20 c21 -10 42 -16 48 -12 11 6 0 14 -145
93 l-78 44 6 -29z m75 -41 c17 -10 31 -20 31 -23 0 -3 -14 -14 -30 -23 -33
-20 -34 -18 -43 36 -5 32 1 33 42 10z"/>
<path d="M1976 2882 c-3 -6 30 -24 74 -42 45 -18 78 -35 75 -39 -4 -3 -54 -22
-112 -42 l-106 -35 99 -43 c54 -24 105 -45 112 -48 6 -3 12 1 12 9 0 9 -29 26
-71 43 -38 16 -72 31 -74 35 -2 4 43 22 101 40 57 19 104 37 104 40 0 3 -39
22 -87 43 -119 49 -120 50 -127 39z"/>
<path d="M2530 2826 c-16 -36 -32 -66 -35 -66 -3 0 -30 16 -60 37 -31 20 -58
33 -62 30 -3 -4 1 -38 9 -77 l16 -70 -63 0 c-101 0 -104 -5 -38 -65 32 -29 56
-55 53 -57 -108 -87 -112 -92 -94 -99 11 -4 42 -8 71 -8 28 -1 55 -5 58 -11 3
-5 -1 -37 -11 -69 -9 -33 -15 -64 -13 -70 2 -5 29 5 59 24 30 19 60 35 66 35
6 0 22 -27 35 -61 13 -34 28 -62 33 -63 5 0 21 27 35 61 14 35 30 63 34 63 4
0 35 -18 68 -40 56 -39 59 -40 59 -18 0 13 -7 48 -15 78 -8 30 -15 56 -15 58
0 1 28 2 63 3 102 1 106 7 43 59 -30 25 -55 50 -55 55 0 6 25 30 56 54 63 51
58 59 -34 60 -28 1 -55 5 -58 11 -3 5 1 37 11 69 9 33 15 64 13 70 -2 5 -29
-5 -59 -24 -30 -19 -60 -35 -67 -35 -7 0 -22 27 -34 60 -12 33 -26 63 -31 66
-4 3 -21 -24 -38 -60z m50 -26 c0 -21 -24 -28 -35 -10 -8 14 3 30 21 30 8 0
14 -9 14 -20z m-144 -55 c-5 -14 -9 -15 -21 -5 -12 10 -13 16 -4 27 15 18 34
1 25 -22z m284 5 c0 -11 -6 -20 -14 -20 -18 0 -29 16 -21 30 11 18 35 11 35
-10z m-68 -31 c105 -53 125 -202 38 -289 -117 -117 -312 -36 -312 130 0 144
140 226 274 159z m-302 -79 c0 -11 -6 -20 -13 -20 -19 0 -27 10 -20 26 8 21
33 17 33 -6z m455 -11 c0 -7 -8 -15 -17 -17 -18 -3 -25 18 -11 32 10 10 28 1
28 -15z m-455 -133 c0 -20 -19 -31 -32 -18 -6 6 -7 15 -4 21 10 16 36 13 36
-3z m453 -2 c9 -9 -4 -34 -18 -34 -14 0 -27 25 -18 34 4 3 12 6 18 6 6 0 14
-3 18 -6z m-368 -124 c0 -8 -8 -16 -17 -18 -13 -2 -18 3 -18 18 0 15 5 20 18
18 9 -2 17 -10 17 -18z m280 -10 c0 -22 -29 -18 -33 3 -3 14 1 18 15 15 10 -2
18 -10 18 -18z m-140 -40 c0 -8 -8 -16 -17 -18 -13 -2 -18 3 -18 18 0 15 5 20
18 18 9 -2 17 -10 17 -18z"/>
<path d="M2537 2576 c-10 -26 4 -47 27 -44 15 2 21 10 21 28 0 29 -38 41 -48
16z"/>
<path d="M2905 2820 c3 -5 23 -10 44 -10 42 0 48 -5 74 -62 l17 -38 -31 -34
c-16 -19 -25 -37 -20 -40 8 -5 171 173 171 188 0 3 -59 6 -131 6 -84 0 -128
-4 -124 -10z m179 -55 c-15 -20 -28 -34 -29 -33 -1 2 -10 18 -19 36 l-17 32
46 0 46 0 -27 -35z"/>
<path d="M1995 2600 c-8 -13 4 -32 16 -25 12 8 12 35 0 35 -6 0 -13 -4 -16
-10z"/>
<path d="M3084 2579 c-10 -17 13 -36 27 -22 12 12 4 33 -11 33 -5 0 -12 -5
-16 -11z"/>
<path d="M2078 2483 c-9 -10 -23 -34 -30 -53 -21 -51 -43 -66 -73 -52 -27 12
-31 32 -14 64 13 25 5 35 -16 18 -21 -17 -19 -73 3 -93 24 -22 66 -22 88 0 9
10 25 36 36 59 21 48 45 62 67 40 11 -12 12 -20 3 -40 -12 -28 -5 -41 15 -25
19 16 16 63 -5 82 -24 22 -55 22 -74 0z"/>
<path d="M3056 2469 c-54 -10 -101 -20 -103 -23 -4 -4 181 -166 191 -166 15 0
3 23 -25 48 l-31 28 14 49 c13 47 16 50 56 58 44 9 59 28 20 26 -13 -1 -68
-10 -122 -20z m30 -35 c-3 -9 -9 -27 -12 -40 l-6 -24 -29 25 c-39 32 -40 39
-4 46 51 11 58 10 51 -7z"/>
<path d="M2103 2293 c-51 -30 -93 -62 -93 -70 0 -12 6 -11 33 5 17 11 61 37
96 59 57 34 88 64 64 62 -4 0 -50 -25 -100 -56z"/>
<path d="M2866 2290 c-46 -41 -60 -85 -44 -136 32 -96 158 -112 221 -28 22 30
35 94 18 94 -6 0 -11 -7 -11 -16 0 -61 -72 -122 -130 -109 -41 9 -80 58 -80
102 0 44 54 103 94 103 14 0 26 5 26 10 0 22 -60 9 -94 -20z"/>
<path d="M2167 2205 c-43 -47 -77 -89 -77 -93 1 -16 75 -62 100 -62 37 0 64
32 58 70 -4 23 -1 30 12 30 9 0 25 9 35 20 22 25 15 57 -23 93 l-29 28 -76
-86z m113 -16 c-12 -21 -32 -24 -61 -9 -24 14 -24 21 3 55 l22 28 23 -27 c18
-22 21 -31 13 -47z m-71 -35 c25 -32 26 -47 5 -68 -21 -22 -38 -20 -71 8 l-28
24 29 31 c17 17 33 31 37 31 4 0 17 -12 28 -26z"/>
<path d="M2365 2177 c-2 -6 -20 -57 -39 -111 -20 -55 -35 -100 -33 -101 6 -4
119 -45 123 -45 2 0 4 6 4 14 0 8 -11 17 -25 20 -13 3 -35 10 -49 16 -25 9
-25 9 -10 53 l15 45 51 -20 c28 -10 53 -17 55 -14 10 10 -9 25 -45 36 -50 17
-54 21 -40 57 l12 31 53 -19 c39 -13 53 -15 53 -5 0 18 -120 59 -125 43z"/>
<path d="M2726 2182 c-8 -14 85 -212 100 -212 8 0 -5 40 -37 107 -56 120 -55
118 -63 105z"/>
<path d="M2558 2143 c-21 -5 -22 -24 -7 -145 13 -96 34 -124 27 -33 -3 30 -2
55 2 55 3 0 28 -22 55 -50 27 -27 56 -50 64 -50 9 0 -5 21 -34 50 -43 44 -46
50 -29 56 54 20 70 68 34 104 -19 19 -67 25 -112 13z m96 -29 c9 -8 16 -19 16
-23 0 -19 -29 -40 -62 -46 -33 -6 -38 -5 -38 11 0 11 -3 29 -6 41 -4 15 -1 22
13 26 37 9 62 7 77 -9z"/>
<path d="M2983 3246 c-3 -6 -3 -8 2 -4 4 4 13 3 20 -2 8 -7 12 -5 12 3 0 16
-25 18 -34 3z"/>
<path d="M3270 2936 c0 -2 7 -7 16 -10 8 -3 12 -2 9 4 -6 10 -25 14 -25 6z"/>
<path d="M1720 2750 c-9 -6 -10 -10 -3 -10 6 0 15 5 18 10 8 12 4 12 -15 0z"/>
<path d="M1710 2604 l-25 -15 25 7 c28 7 35 12 29 18 -2 2 -15 -2 -29 -10z"/>
<path d="M3370 2565 c0 -6 5 -16 12 -23 9 -9 9 -12 -2 -12 -7 0 -11 -2 -8 -5
9 -9 58 17 52 27 -3 5 -12 4 -19 -2 -10 -8 -16 -7 -24 7 -6 10 -11 13 -11 8z"/>
<path d="M3376 2494 c-18 -17 -22 -39 -6 -29 11 7 33 45 26 45 -2 0 -12 -7
-20 -16z"/>
<path d="M3406 2460 c4 -27 2 -40 -11 -50 -14 -12 -18 -12 -25 0 -5 8 -12 11
-17 7 -4 -5 -1 -12 6 -16 11 -7 11 -9 0 -13 -9 -3 -8 -6 5 -11 11 -5 15 -3 10
5 -5 8 -2 9 10 5 9 -4 15 -3 12 2 -3 5 1 14 9 21 17 14 19 48 5 70 -7 10 -8 4
-4 -20z"/>
<path d="M1807 2167 c4 -7 7 -23 5 -37 -1 -23 2 -18 14 19 3 10 10 10 32 -5
22 -14 24 -14 14 -2 -17 21 -76 43 -65 25z"/>
<path d="M3194 1968 l-19 -23 23 19 c12 11 22 21 22 23 0 8 -8 2 -26 -19z"/>
<path d="M3054 1919 c-4 -7 -3 -9 3 -6 13 8 26 -20 16 -36 -3 -7 4 -3 17 8 14
12 20 14 15 5 -8 -13 -7 -13 10 0 18 14 17 15 -6 18 -13 2 -29 8 -36 13 -7 7
-14 6 -19 -2z"/>
<path d="M2964 1854 c-15 -22 -15 -27 -3 -35 18 -12 40 -11 59 1 11 8 8 9 -12
4 -40 -9 -52 3 -33 32 8 13 13 24 10 24 -2 0 -12 -12 -21 -26z"/>
<path d="M1445 3416 c-16 -7 -43 -27 -59 -44 -26 -28 -28 -35 -20 -64 19 -67
114 -57 114 12 0 39 -12 38 -27 -1 -15 -40 -56 -39 -61 2 -4 32 39 67 93 76
32 5 36 3 49 -28 50 -119 14 -199 -88 -199 -28 0 -41 7 -70 42 -39 48 -53 46
-37 -5 8 -22 26 -44 50 -60 79 -52 86 -174 15 -237 -64 -56 -129 -26 -140 65
-7 52 -27 95 -45 95 -6 0 -8 -9 -4 -19 3 -11 10 -44 15 -75 5 -31 19 -70 31
-87 34 -48 51 -117 39 -155 -11 -32 -39 -48 -66 -37 -14 5 -16 10 -34 91 -8
34 -19 56 -32 63 -18 10 -19 8 -13 -20 25 -116 41 -156 67 -170 24 -14 30 -14
63 2 124 59 261 266 291 439 21 122 16 208 -16 273 -21 42 -30 50 -55 52 -16
2 -43 -3 -60 -11z"/>
<path d="M3533 3378 c-19 -20 -22 -34 -21 -111 0 -48 4 -90 9 -93 5 -3 16 10
25 29 13 28 14 43 6 82 -6 26 -8 54 -5 62 13 35 111 -10 124 -57 14 -49 9 -83
-17 -117 -14 -18 -32 -49 -40 -68 -16 -38 -19 -111 -5 -119 15 -10 41 41 41
79 0 70 39 106 88 81 35 -18 56 -48 72 -104 18 -60 1 -96 -61 -128 -50 -25
-69 -48 -69 -83 0 -29 8 -26 44 14 41 46 72 52 116 23 66 -44 85 -123 45 -184
-32 -50 -125 -17 -125 44 0 15 4 33 9 41 11 17 40 8 47 -16 19 -59 24 -67 40
-51 12 12 13 20 4 44 -26 67 -77 84 -120 39 -19 -20 -22 -31 -17 -67 10 -76
99 -123 155 -81 60 44 67 65 67 186 -1 97 -4 122 -28 187 -66 180 -225 364
-332 386 -23 4 -35 0 -52 -18z"/>
<path d="M1218 2463 c-43 -47 -51 -73 -52 -168 -1 -101 21 -181 80 -295 48
-91 149 -208 214 -247 66 -40 101 -42 128 -8 18 22 19 36 15 108 -3 45 -8 84
-10 87 -3 3 -11 -4 -20 -15 -11 -16 -13 -36 -9 -91 8 -85 -3 -95 -64 -64 -43
22 -54 38 -64 91 -5 29 -1 43 20 75 46 67 67 122 59 160 -3 19 -10 34 -15 34
-16 0 -30 -37 -30 -78 0 -47 -31 -92 -64 -92 -30 0 -73 40 -92 85 -29 71 -11
126 50 154 47 20 61 35 70 74 9 36 -5 34 -47 -8 -41 -41 -81 -46 -121 -14 -54
42 -71 112 -41 169 39 76 156 21 130 -60 -11 -34 -46 -22 -60 20 -15 46 -41
47 -38 2 1 -37 36 -82 63 -82 10 0 29 9 44 21 21 16 26 29 26 64 0 57 -7 73
-41 90 -47 25 -101 19 -131 -12z"/>
<path d="M3805 2438 c-84 -60 -156 -150 -219 -276 -54 -106 -74 -305 -42 -397
10 -27 23 -56 28 -62 12 -15 67 -17 103 -3 87 33 103 150 21 150 -42 0 -58
-19 -54 -62 l4 -33 13 32 c15 39 41 50 58 27 19 -25 17 -33 -18 -65 -43 -41
-102 -41 -117 -1 -22 56 -31 104 -22 125 13 35 54 67 94 74 34 5 40 2 81 -41
24 -26 46 -43 49 -38 11 19 -24 82 -55 97 -44 23 -73 93 -64 153 5 35 16 56
45 84 45 46 72 48 111 9 23 -24 29 -38 29 -75 0 -33 6 -52 24 -73 28 -33 41
-27 26 11 -5 15 -10 41 -10 58 0 17 -16 59 -35 93 -43 78 -54 135 -31 170 13
19 24 25 44 23 23 -3 28 -10 43 -72 16 -61 30 -85 50 -86 10 0 -30 152 -47
178 -19 29 -68 29 -109 0z"/>
<path d="M3235 1601 l-70 -6 28 -19 c22 -15 38 -17 90 -12 83 9 95 -3 65 -63
-21 -43 -36 -53 -94 -64 -25 -5 -42 1 -85 28 -69 45 -112 59 -157 50 l-37 -7
24 -19 c15 -12 39 -19 68 -19 33 0 50 -6 68 -25 30 -30 31 -45 4 -79 -42 -53
-132 -81 -180 -56 -10 6 -30 33 -44 59 -19 39 -32 52 -60 61 -52 17 -54 5 -7
-38 45 -42 51 -66 27 -112 -23 -45 -78 -73 -131 -67 -79 9 -108 64 -63 121 23
29 69 35 89 11 16 -20 -1 -42 -41 -53 -33 -8 -38 -22 -15 -37 12 -7 27 -4 54
10 31 17 38 26 40 56 4 46 -25 74 -77 73 -54 -2 -77 -18 -97 -70 -17 -44 -17
-48 0 -77 26 -48 60 -68 132 -78 169 -24 392 69 553 230 41 41 81 115 81 148
0 26 -45 64 -74 61 -11 -1 -52 -4 -91 -7z"/>
<path d="M1763 1571 c-28 -11 -57 -22 -62 -26 -16 -9 -13 -59 5 -105 31 -76
104 -100 140 -45 29 44 -16 96 -73 82 -14 -3 -11 -7 14 -16 54 -21 53 -76 -2
-69 -26 4 -65 64 -65 100 0 24 6 32 38 45 20 9 55 18 77 20 34 4 47 0 73 -22
33 -27 49 -77 37 -114 -3 -11 -24 -33 -46 -50 -23 -17 -36 -32 -30 -36 21 -12
76 18 106 58 59 79 171 84 235 11 57 -66 30 -122 -65 -135 -44 -6 -65 -14 -84
-35 l-26 -27 25 7 c14 4 48 10 76 15 28 4 71 19 95 33 94 55 168 57 188 6 11
-28 -12 -58 -44 -58 -46 0 -129 -40 -114 -54 5 -5 32 1 135 29 92 26 91 85 -2
185 -94 101 -242 183 -370 205 -114 20 -197 18 -261 -4z"/>
<path d="M3770 1460 c0 -6 7 -10 15 -10 8 0 15 2 15 4 0 2 -7 6 -15 10 -8 3
-15 1 -15 -4z"/>
<path d="M3267 4304 c-22 -46 -22 -46 -2 -60 11 -8 31 -14 45 -12 34 4 35 48
2 63 -17 8 -21 16 -17 33 9 36 -4 25 -28 -24z m59 -35 c10 -17 -12 -32 -40
-25 -23 6 -24 9 -14 31 9 19 14 22 29 15 10 -6 21 -15 25 -21z"/>
<path d="M3362 4265 c-25 -51 -26 -55 -13 -55 9 0 46 89 39 95 -2 3 -14 -16
-26 -40z"/>
<path d="M3453 4241 c3 -30 1 -35 -25 -45 -15 -6 -28 -14 -28 -18 0 -5 14 -2
30 7 28 14 30 14 30 -2 0 -10 5 -25 11 -33 7 -11 9 -7 7 18 -3 29 1 36 27 47
17 7 24 14 17 14 -7 1 -22 -4 -33 -9 -15 -9 -19 -7 -19 7 0 10 -5 25 -11 33
-8 11 -9 7 -6 -19z"/>
<path d="M1602 4210 c0 -19 2 -27 5 -17 2 9 2 25 0 35 -3 9 -5 1 -5 -18z"/>
<path d="M1531 4196 c-9 -11 -10 -20 -1 -35 11 -22 35 -28 45 -11 3 5 0 7 -8
4 -21 -8 -44 23 -28 39 10 9 15 8 27 -7 11 -16 14 -17 14 -4 0 9 -7 19 -16 22
-21 8 -20 8 -33 -8z"/>
<path d="M1627 4204 c-12 -12 -8 -41 9 -54 22 -19 54 12 38 38 -12 19 -36 27
-47 16z m37 -20 c3 -9 3 -20 0 -25 -8 -13 -34 9 -34 27 0 19 26 18 34 -2z"/>
<path d="M1452 4148 c-18 -18 -15 -42 9 -72 39 -49 92 -23 69 34 -18 44 -54
62 -78 38z m33 -4 c8 -4 22 -19 30 -34 13 -25 13 -30 0 -40 -13 -10 -19 -9
-35 5 -23 20 -34 50 -25 65 7 12 8 12 30 4z"/>
<path d="M1591 4124 c0 -11 3 -14 6 -6 3 7 2 16 -1 19 -3 4 -6 -2 -5 -13z"/>
<path d="M3631 4099 c-33 -45 -35 -68 -2 -28 l19 24 11 -27 c6 -15 8 -34 5
-42 -3 -8 0 -17 6 -21 8 -5 11 5 9 36 -3 41 -2 44 26 51 24 6 21 6 -12 4 -44
-4 -52 1 -31 22 6 6 9 14 6 18 -4 3 -20 -13 -37 -37z"/>
<path d="M1366 4079 c-13 -19 -13 -25 0 -50 18 -36 62 -49 80 -25 15 21 9 42
-19 74 -26 28 -42 28 -61 1z m58 -18 c19 -21 18 -52 -1 -58 -17 -6 -53 33 -53
57 0 26 31 26 54 1z"/>
<path d="M3752 4024 c-41 -28 -19 -94 32 -94 26 0 56 29 56 53 0 20 -34 57
-53 57 -7 0 -23 -7 -35 -16z m67 -22 c7 -14 6 -25 -5 -40 -30 -44 -87 -15 -66
33 14 30 56 34 71 7z"/>
<path d="M1295 4019 c-4 -6 -4 -13 -1 -16 3 -4 6 0 6 8 0 7 14 -3 31 -24 17
-20 35 -37 41 -37 11 0 -52 78 -64 79 -4 1 -10 -4 -13 -10z"/>
<path d="M3855 3905 c-47 -40 -39 -47 11 -9 l34 26 -19 -43 c-11 -24 -18 -45
-16 -48 2 -2 22 4 45 13 57 22 58 21 20 -19 -19 -19 -29 -35 -23 -35 14 0 74
75 66 83 -3 4 -21 0 -40 -8 -50 -21 -56 -19 -38 15 16 31 20 60 8 60 -5 0 -26
-16 -48 -35z"/>
<path d="M1167 3892 c-10 -10 -17 -28 -17 -40 0 -47 61 -69 93 -34 26 29 20
38 -7 12 -16 -14 -31 -20 -42 -16 -14 5 -13 10 10 41 26 33 26 34 7 45 -25 13
-25 13 -44 -8z m43 -9 c0 -10 -32 -43 -42 -43 -10 0 -11 34 -1 43 8 9 43 9 43
0z"/>
<path d="M3981 3780 c-19 -16 -32 -32 -29 -35 3 -3 20 6 37 21 31 25 32 26 51
9 27 -24 25 -32 -10 -62 -17 -14 -29 -28 -26 -30 6 -6 76 47 76 57 0 11 -50
70 -58 70 -4 -1 -22 -14 -41 -30z"/>
<path d="M1055 3764 c-28 -30 -25 -39 28 -76 l30 -21 18 24 c25 32 25 69 0 69
-10 0 -21 7 -25 15 -8 22 -24 18 -51 -11z m36 -23 c-13 -23 -26 -27 -36 -10
-4 5 1 19 11 30 22 25 41 10 25 -20z m47 -12 c-4 -29 -33 -48 -49 -32 -10 10
-8 17 6 33 24 27 47 26 43 -1z"/>
<path d="M4078 3658 c-27 -22 -28 -46 -4 -74 18 -22 28 -26 50 -20 15 3 32 17
38 31 23 50 -41 97 -84 63z m66 -20 c16 -26 -4 -53 -40 -53 -23 0 -30 5 -32
24 -7 45 48 66 72 29z"/>
<path d="M966 3644 c-37 -37 -1 -103 49 -90 14 4 31 17 37 31 23 52 -46 100
-86 59z m55 -4 c24 -14 25 -56 1 -69 -39 -21 -81 36 -50 67 15 15 24 15 49 2z"/>
<path d="M4177 3526 c-50 -31 -57 -39 -26 -31 21 5 29 1 42 -19 16 -24 16 -26
-4 -36 -11 -7 -18 -14 -16 -17 7 -7 87 38 87 49 0 5 -9 4 -21 -2 -23 -13 -22
-14 -38 18 -11 20 -10 26 6 37 32 24 9 24 -30 1z"/>
<path d="M905 3516 c17 -12 18 -17 7 -40 -10 -22 -16 -25 -39 -20 -25 5 -23 3
12 -20 46 -29 79 -35 45 -8 -20 16 -21 21 -9 40 11 18 20 21 44 17 29 -6 28
-5 -10 19 -43 27 -84 37 -50 12z"/>
<path d="M812 3378 c-29 -29 1 -88 45 -88 25 0 53 30 52 56 0 14 -3 13 -10 -8
-11 -29 -33 -41 -60 -33 -24 8 -33 39 -19 65 12 23 10 26 -8 8z"/>
<path d="M4227 3372 c-21 -23 -21 -42 -2 -68 16 -22 20 -12 5 15 -6 13 -5 24
4 37 13 17 15 16 32 -19 19 -39 30 -42 48 -15 7 11 6 24 -2 42 -14 32 -60 36
-85 8z m73 -7 c13 -15 7 -45 -8 -45 -8 0 -32 42 -32 55 0 11 29 4 40 -10z"/>
<path d="M4308 3242 c-49 -16 -68 -37 -24 -26 18 4 27 1 35 -14 16 -30 14 -40
-10 -47 -11 -4 -18 -9 -15 -12 2 -3 22 0 43 7 46 15 71 36 31 26 -22 -5 -28
-2 -36 24 -9 25 -8 30 9 35 10 4 19 11 19 16 0 5 -1 9 -2 8 -2 0 -24 -8 -50
-17z"/>
<path d="M762 3234 c-24 -17 -30 -62 -10 -82 18 -18 69 -15 84 6 20 26 17 49
-12 71 -32 25 -33 25 -62 5z m62 -26 c19 -27 5 -58 -27 -58 -41 0 -62 41 -35
68 18 18 45 14 62 -10z"/>
<path d="M4405 3088 c4 -22 2 -28 -12 -28 -10 -1 -31 -7 -48 -16 l-30 -14 30
4 c17 3 38 8 47 11 13 5 21 0 28 -16 8 -20 9 -17 4 16 -3 22 -10 47 -16 55 -7
11 -8 7 -3 -12z"/>
<path d="M682 2988 c-7 -7 -11 -23 -11 -37 1 -21 2 -22 6 -6 6 25 22 45 35 45
6 0 7 -11 4 -24 -4 -15 0 -32 12 -46 17 -22 19 -22 36 -5 11 11 16 28 13 42
-2 13 1 23 7 24 6 0 2 4 -9 9 -30 13 -79 12 -93 -2z m86 -41 c-4 -27 -35 -35
-40 -10 -2 10 -2 26 0 35 6 27 44 3 40 -25z"/>
<path d="M4365 2930 c-15 -16 -17 -26 -9 -47 14 -40 39 -51 72 -33 33 19 40
55 16 81 -22 25 -56 24 -79 -1z m69 -6 c20 -19 20 -38 2 -54 -20 -16 -56 -9
-70 13 -9 15 -7 22 13 38 28 23 35 24 55 3z"/>
<path d="M650 2851 c0 -6 9 -11 20 -11 16 0 20 -7 20 -30 0 -25 -4 -30 -25
-30 -14 0 -25 -4 -25 -10 0 -5 15 -10 33 -10 17 0 42 -3 55 -6 13 -4 22 -2 22
5 0 6 -11 11 -25 11 -18 0 -25 5 -25 19 0 36 10 48 36 43 14 -2 24 0 24 7 0 6
-15 11 -32 11 -18 0 -43 3 -55 6 -14 4 -23 2 -23 -5z"/>
<path d="M4401 2783 c-32 -4 -33 -6 -28 -40 8 -44 20 -58 44 -48 10 4 27 8 38
9 16 1 20 8 20 41 0 44 -6 47 -74 38z m19 -42 c0 -38 -16 -48 -30 -20 -14 25
-6 49 15 49 10 0 15 -10 15 -29z m50 5 c0 -33 -16 -42 -29 -17 -16 29 -13 41
9 41 15 0 20 -7 20 -24z"/>
<path d="M665 2600 c-7 -12 2 -30 16 -30 5 0 9 9 9 20 0 21 -15 27 -25 10z"/>
<path d="M4426 2531 c-3 -5 1 -14 8 -20 16 -13 32 2 21 19 -8 12 -22 13 -29 1z"/>
<path d="M665 2400 l-30 -8 28 -1 c24 -1 27 -5 27 -35 0 -28 -4 -35 -22 -39
-15 -3 -10 -5 14 -6 20 0 45 2 55 6 16 6 15 8 -7 13 -29 7 -43 60 -16 60 8 0
18 5 21 10 7 11 -25 11 -70 0z"/>
<path d="M4370 2324 c-20 -51 -14 -61 37 -67 27 -3 51 -3 55 0 5 2 8 22 8 44
0 43 -19 60 -45 39 -10 -9 -15 -9 -15 -1 0 22 -31 11 -40 -15z m40 -19 c0 -28
-11 -37 -30 -25 -11 7 -12 14 -2 35 14 30 32 25 32 -10z m50 -6 c0 -22 -5 -29
-20 -29 -23 0 -28 38 -8 58 16 16 28 5 28 -29z"/>
<path d="M665 2239 c-4 -5 -3 -22 1 -37 4 -15 6 -32 5 -38 -1 -9 10 -9 40 -3
23 6 46 12 51 15 11 7 10 61 -2 69 -6 4 -7 -5 -4 -23 9 -44 -13 -49 -30 -7
-15 35 -47 48 -61 24z m43 -11 c19 -19 15 -48 -7 -48 -20 0 -37 32 -26 50 8
13 18 13 33 -2z"/>
<path d="M4351 2186 c-20 -24 -9 -69 21 -85 24 -14 28 -14 47 3 23 21 28 65 9
84 -17 17 -63 15 -77 -2z m63 -9 c26 -19 18 -61 -12 -65 -42 -6 -69 37 -40 66
15 15 30 15 52 -1z"/>
<path d="M4309 2043 c-6 -16 -12 -41 -15 -58 -4 -28 -4 -29 6 -6 10 24 32 25
83 6 9 -4 17 -3 17 2 0 5 -17 14 -37 19 -33 8 -38 13 -36 37 2 35 -5 35 -18 0z"/>
<path d="M740 2010 c-24 -24 -25 -38 -4 -68 16 -24 44 -28 75 -12 39 21 12
100 -34 100 -9 0 -26 -9 -37 -20z m74 -16 c12 -30 6 -45 -21 -55 -24 -9 -30
-7 -45 11 -13 17 -15 27 -8 41 13 24 65 26 74 3z"/>
<path d="M4270 1913 c0 -3 7 -11 16 -17 12 -9 13 -17 5 -39 -9 -23 -15 -27
-38 -22 -23 5 -25 4 -10 -5 33 -21 87 -40 87 -31 0 5 -9 12 -19 16 -17 5 -18
10 -9 36 9 27 13 29 42 23 17 -3 29 -4 26 -1 -10 10 -100 46 -100 40z"/>
<path d="M812 1869 c-26 -10 -38 -50 -22 -79 6 -12 14 -19 17 -17 2 3 0 14 -6
25 -15 27 -4 51 25 58 27 7 54 -10 55 -35 0 -9 3 -11 5 -4 7 17 -12 50 -34 55
-10 3 -28 1 -40 -3z"/>
<path d="M4195 1750 c-23 -25 -14 -62 19 -80 21 -11 29 -11 49 3 13 9 27 25
30 36 7 28 -6 27 -18 -1 -6 -13 -20 -24 -33 -26 l-23 -4 20 40 c18 35 19 41 5
46 -24 9 -29 8 -49 -14z m45 -5 c0 -11 -24 -55 -31 -55 -11 0 -19 28 -13 45 5
13 44 22 44 10z"/>
<path d="M872 1733 c-42 -25 -53 -45 -13 -24 18 10 22 7 36 -18 14 -29 14 -31
-6 -41 -11 -7 -18 -14 -16 -17 7 -6 87 40 87 50 0 4 -9 3 -21 -3 -23 -13 -22
-14 -38 18 -11 20 -10 26 6 37 34 25 8 23 -35 -2z"/>
<path d="M4149 1623 c20 -18 20 -19 2 -42 -15 -20 -21 -22 -39 -12 -12 7 -22
8 -22 4 1 -12 90 -64 90 -52 0 5 -7 12 -15 15 -19 8 -19 23 1 49 12 17 17 18
35 7 38 -24 31 -4 -8 22 -43 30 -77 36 -44 9z"/>
<path d="M935 1590 c-15 -16 -17 -26 -9 -47 14 -40 39 -51 72 -33 33 19 40 55
16 81 -22 25 -56 24 -79 -1z m69 -6 c19 -18 19 -20 6 -45 -15 -28 -66 -26 -76
3 -5 16 -1 27 16 40 27 22 34 22 54 2z"/>
<path d="M4031 1486 c-20 -24 -9 -69 21 -86 26 -14 29 -14 55 13 27 26 27 29
13 55 -18 32 -69 42 -89 18z m69 -10 c6 -8 10 -25 8 -38 -6 -42 -78 -32 -78
11 0 37 46 55 70 27z"/>
<path d="M1030 1460 l-35 -29 21 -28 c26 -35 64 -43 64 -14 0 14 6 21 20 21
25 0 25 13 3 51 -21 36 -29 36 -73 -1z m71 -33 c-7 -7 -17 -5 -31 8 -11 10
-20 13 -20 7 0 -6 5 -14 10 -17 11 -7 14 -45 3 -45 -4 0 -17 10 -30 22 l-23
22 32 27 33 28 18 -21 c12 -14 15 -24 8 -31z"/>
<path d="M3932 1357 l-32 -33 40 -33 c49 -39 65 -36 19 3 -28 24 -31 30 -21
52 15 30 27 30 64 -1 17 -14 33 -24 35 -21 5 5 -57 65 -68 66 -3 0 -20 -15
-37 -33z"/>
<path d="M1127 1342 c-10 -10 -17 -28 -17 -39 0 -22 36 -60 47 -50 3 4 1 7 -5
7 -16 0 -35 39 -27 57 5 13 12 10 39 -16 34 -33 34 -33 46 -11 26 49 -45 94
-83 52z m57 2 c15 -6 24 -54 10 -54 -8 0 -43 43 -44 53 0 9 13 9 34 1z"/>
<path d="M3850 1276 c0 -2 7 -22 15 -45 8 -22 12 -41 9 -41 -2 0 -21 7 -41 15
-42 18 -43 18 -43 4 0 -13 52 -79 63 -79 4 0 -4 16 -19 35 l-26 35 36 -15 c53
-22 57 -20 41 26 -20 56 -19 57 15 24 16 -16 32 -26 35 -23 4 3 -11 20 -32 37
-34 28 -53 38 -53 27z"/>
<path d="M1316 1209 c3 -6 -9 -26 -27 -45 -18 -19 -28 -34 -22 -34 12 0 73 69
73 82 0 5 -7 8 -16 8 -8 0 -12 -5 -8 -11z"/>
<path d="M1345 1144 c-27 -29 -32 -53 -13 -72 18 -18 42 -14 66 11 27 29 28
63 3 77 -27 14 -29 13 -56 -16z m65 -11 c0 -20 -38 -63 -56 -63 -7 0 -16 4
-19 10 -7 11 12 51 29 62 20 14 46 8 46 -9z"/>
<path d="M3704 1137 c-31 -27 -27 -58 12 -83 22 -15 26 -15 49 0 27 18 35 66
13 83 -29 22 -48 22 -74 0z m68 -22 c19 -41 -28 -75 -60 -43 -13 13 -16 50 -5
61 16 17 54 6 65 -18z"/>
<path d="M1442 1093 c-7 -3 -19 -18 -27 -33 -13 -26 -13 -30 4 -51 18 -22 19
-23 45 -5 63 41 45 116 -22 89z m48 -25 c0 -27 -27 -58 -52 -58 -22 0 -24 27
-2 58 20 29 54 29 54 0z"/>
<path d="M3610 1054 c-6 -14 -10 -33 -10 -42 -1 -14 -4 -12 -20 7 -29 34 -24
7 7 -40 15 -23 29 -36 31 -29 2 6 -1 17 -7 23 -22 22 -11 30 37 24 47 -6 47
-6 19 9 -16 9 -35 13 -43 10 -15 -6 -14 5 3 52 3 6 2 12 -1 12 -4 0 -11 -12
-16 -26z"/>
<path d="M1521 1026 c-17 -20 -2 -48 23 -44 15 2 22 11 24 31 2 15 -1 27 -6
27 -6 0 -8 -8 -5 -19 5 -20 -11 -36 -27 -26 -7 4 -7 13 0 26 12 22 8 25 -9 5z"/>
<path d="M1600 990 c-8 -5 -10 -10 -5 -10 6 0 17 5 25 10 8 5 11 10 5 10 -5 0
-17 -5 -25 -10z"/>
<path d="M1520 955 c-14 -8 -20 -14 -15 -14 6 0 21 6 35 14 14 8 21 14 15 14
-5 0 -21 -6 -35 -14z"/>
<path d="M1564 945 c-8 -21 2 -45 19 -45 20 0 40 27 33 45 -7 19 -45 20 -52 0z
m46 -10 c0 -16 -27 -32 -37 -22 -3 4 -3 13 0 22 8 20 37 20 37 0z"/>
<path d="M3417 943 c-4 -3 -7 -15 -7 -26 0 -11 -5 -17 -12 -14 -7 3 -22 8 -33
12 -20 7 -20 6 -1 -9 11 -9 24 -16 29 -16 5 0 7 -16 4 -35 -3 -21 -2 -33 4
-30 5 4 9 18 9 32 0 20 4 24 18 18 38 -16 55 -15 24 2 -28 15 -32 21 -27 45 7
28 4 34 -8 21z"/>
<path d="M3290 886 c0 -13 41 -98 45 -94 7 7 -28 98 -37 98 -4 0 -8 -2 -8 -4z"/>
<path d="M1913 845 c40 -23 35 -41 -12 -37 -29 3 -40 0 -45 -14 -9 -22 10 -40
50 -47 29 -6 32 -3 44 34 15 45 6 61 -40 73 -24 7 -24 6 3 -9z m15 -62 c-2
-12 -12 -18 -28 -18 -16 0 -26 6 -28 18 -3 13 3 17 28 17 25 0 31 -4 28 -17z"/>
<path d="M3213 801 l20 -50 31 13 c22 9 32 20 34 38 4 31 -17 42 -53 28 -20
-8 -27 -6 -31 5 -4 8 -10 15 -14 15 -5 0 1 -22 13 -49z m75 3 c-5 -27 -37 -42
-48 -24 -18 27 -11 40 21 40 23 0 30 -4 27 -16z"/>
<path d="M3136 806 c5 -19 1 -25 -21 -30 -15 -4 -28 -6 -30 -4 -1 2 -7 12 -13
23 -16 28 -16 -1 -1 -46 16 -47 31 -61 23 -21 -4 18 -3 32 2 32 5 0 19 3 31 6
16 4 23 0 28 -16 13 -41 18 -10 5 35 -13 45 -36 65 -24 21z"/>
<path d="M2022 788 c-7 -7 -12 -24 -12 -38 0 -33 17 -50 50 -49 22 2 22 2 3 6
-35 7 -48 29 -34 60 10 22 16 25 47 20 20 -4 32 -2 29 4 -9 13 -69 11 -83 -3z"/>
<path d="M2165 770 c3 -6 13 -10 21 -10 12 0 14 -10 9 -52 -5 -53 5 -40 19 23
5 22 10 26 33 23 28 -4 28 -4 3 4 -47 16 -91 22 -85 12z"/>
<path d="M2920 760 c0 -8 5 -32 11 -53 10 -35 13 -38 37 -32 33 8 52 23 52 41
0 18 -37 37 -57 30 -9 -4 -21 1 -29 11 -11 15 -13 15 -14 3z m85 -40 c5 -9
-42 -47 -49 -39 -2 2 -7 14 -10 27 -7 19 -4 22 23 22 16 0 32 -4 36 -10z"/>
<path d="M2800 753 c-23 -4 -25 -8 -25 -57 0 -30 3 -52 8 -49 4 2 7 24 7 49 0
42 1 44 30 44 27 0 30 -3 30 -32 0 -18 5 -40 10 -48 8 -12 10 -12 10 5 0 11
-3 37 -6 58 -7 38 -8 39 -64 30z"/>
<path d="M2308 700 c-4 -61 8 -64 51 -12 l32 37 -3 -42 c-2 -24 0 -43 4 -43 5
0 8 8 8 19 0 10 3 33 6 50 9 42 -7 40 -51 -6 l-36 -38 6 43 c4 25 3 42 -3 42
-6 0 -12 -23 -14 -50z"/>
<path d="M2480 731 c23 -7 25 -12 23 -54 -2 -26 2 -47 7 -47 6 0 10 20 10 45
0 42 2 45 28 46 24 0 25 1 7 9 -11 5 -38 8 -60 8 -33 0 -36 -1 -15 -7z"/>
<path d="M2624 715 c-13 -21 -15 -31 -6 -50 13 -29 53 -42 79 -25 16 10 15 11
-6 6 -26 -5 -61 9 -61 24 0 6 12 10 28 10 41 0 60 15 46 37 -18 29 -60 28 -80
-2z m65 1 c9 -11 7 -15 -11 -20 -36 -9 -48 -7 -48 8 0 25 41 34 59 12z"/>
</g>
</svg>
